<?xml version="1.0" encoding="UTF-8" standalone="no"?>
<!-- Created with Inkscape (http://www.inkscape.org/) -->

<svg
   xmlns:dc="http://purl.org/dc/elements/1.1/"
   xmlns:cc="http://creativecommons.org/ns#"
   xmlns:rdf="http://www.w3.org/1999/02/22-rdf-syntax-ns#"
   xmlns:svg="http://www.w3.org/2000/svg"
   xmlns="http://www.w3.org/2000/svg"
   xmlns:sodipodi="http://sodipodi.sourceforge.net/DTD/sodipodi-0.dtd"
   xmlns:inkscape="http://www.inkscape.org/namespaces/inkscape"
   width="40mm"
   height="39.999996mm"
   viewBox="0 0 40 39.999996"
   version="1.1"
   id="svg8"
   inkscape:version="0.92.4 (unknown)"
   sodipodi:docname="meksiko.svg">
  <defs
     id="defs2" />
  <sodipodi:namedview
     id="base"
     pagecolor="#ffffff"
     bordercolor="#666666"
     borderopacity="1.0"
     inkscape:pageopacity="0.0"
     inkscape:pageshadow="2"
     inkscape:zoom="1.979899"
     inkscape:cx="196.37121"
     inkscape:cy="48.860191"
     inkscape:document-units="mm"
     inkscape:current-layer="layer1"
     showgrid="false"
     inkscape:window-width="1366"
     inkscape:window-height="725"
     inkscape:window-x="0"
     inkscape:window-y="0"
     inkscape:window-maximized="1" />
  <metadata
     id="metadata5">
    <rdf:RDF>
      <cc:Work
         rdf:about="">
        <dc:format>image/svg+xml</dc:format>
        <dc:type
           rdf:resource="http://purl.org/dc/dcmitype/StillImage" />
        <dc:title></dc:title>
      </cc:Work>
    </rdf:RDF>
  </metadata>
  <g
     inkscape:label="Layer 1"
     inkscape:groupmode="layer"
     id="layer1"
     transform="translate(303.45404,-57.049576)">
    <text
       xml:space="preserve"
       style="font-style:normal;font-variant:normal;font-weight:normal;font-stretch:normal;font-size:9.8777771px;line-height:1.25;font-family:mononoki;-inkscape-font-specification:mononoki;letter-spacing:0px;word-spacing:0px;fill:#ff0000;fill-opacity:1;stroke:none;stroke-width:0.26458332"
       x="-252.85753"
       y="104.77062"
       id="text817"><tspan
         sodipodi:role="line"
         id="tspan815"
         x="-252.85753"
         y="104.77062"
         style="fill:#ff0000;stroke-width:0.26458332">meksiko</tspan></text>
    <g
       aria-label="meksiko"
       style="font-style:normal;font-variant:normal;font-weight:normal;font-stretch:normal;font-size:9.8777771px;line-height:1.25;font-family:mononoki;-inkscape-font-specification:mononoki;letter-spacing:0px;word-spacing:0px;fill:#ff0000;fill-opacity:1;stroke:none;stroke-width:0.26458332"
       id="text821">
      <path
         d="m -246.32691,89.467755 -0.0627,0.183279 v 2.421213 q -0.005,0.376204 0.10128,0.429259 0.16881,0 0.34245,-0.327973 l 0.0338,-0.135048 h 0.0193 l 0.082,0.01929 v 0.04823 l -0.0482,0.149517 -0.0241,0.110932 q -0.0675,0.409967 -0.2074,0.554661 -0.0965,0.178455 -0.41961,0.332796 -0.15434,0.03376 -0.17846,0 -0.13987,-0.08199 -0.42926,-0.371382 -0.24115,-0.110932 -0.45337,-0.05305 l -0.0193,-0.01447 v -0.01929 q 0.30868,-0.429259 0.34244,-0.689708 v -2.614138 q 0,-0.0627 -0.0434,-0.09164 l -0.0724,-0.110932 v -0.01447 q -0.0627,-0.120579 -0.16881,-0.202572 l -0.0579,-0.03376 -1.19132,0.496783 -0.0241,0.144694 -0.0289,-0.0096 v 2.392274 q 0.01,0.236333 0.23633,0.356912 0.13987,0.101285 0.30386,0.101285 0.10611,0 0.23633,-0.299034 0,-0.08682 0.0531,-0.08682 0.0627,0 0.10128,0.188102 -0.005,0.236334 -0.51125,0.786171 l -0.24116,0.163986 q -0.13987,0 -0.22668,-0.130224 -0.11576,-0.120579 -0.36174,-0.154341 -0.66559,-0.01447 -1.53375,0.381028 -0.36656,0.217041 -0.47267,0.217041 l -0.0193,-0.01929 v -0.01929 q 0.0289,-0.0627 0.45337,-0.347266 0.2508,-0.188102 0.56431,-0.506429 0.29903,-0.260449 0.39549,-0.55466 v -2.657547 q -0.01,-0.163986 -0.14469,-0.289388 -0.0772,-0.09164 -0.23151,-0.13987 -0.24116,-0.03858 -0.5209,0.04823 l -0.0482,-0.06752 q 0.0145,-0.07235 0.13505,-0.115755 0.39549,-0.236334 0.94533,-0.434082 0.10129,-0.03858 0.30386,-0.101286 h 0.0193 q 0.29904,0.07717 0.49678,0.347266 l 0.0868,0.332796 0.0868,0.01929 1.6061,-0.733116 h 0.0145 q 0.32315,0.02894 0.57395,0.337619 0.0916,0.144694 0.13023,0.274919 l 0.0868,0.115755 q 1.35048,-0.6463 1.52411,-0.72347 0.14952,-0.05788 0.22669,0.03376 0.16399,0.101286 0.28457,0.202572 0.12057,0.09646 0.25562,0.09646 0.71383,-0.366558 0.96463,-0.366558 l 0.20257,-0.01447 0.0338,0.06752 q -0.13987,0.0096 -0.26527,0.09164 -0.33762,0.192926 -0.66559,0.578776 -0.2074,0.202572 -0.2074,0.689708 l 0.005,2.614139 q 0.0723,0.212218 0.16398,0.226687 0.47267,-0.376204 0.89711,-0.376204 l 0.0145,0.01929 v 0.03376 q -0.082,0 -0.36655,0.270095 -0.34727,0.270096 -0.53537,0.56913 -0.13505,0.183279 -0.22187,0.188102 -0.14951,0.05788 -0.42925,-0.09164 -0.13987,-0.08199 -0.20258,-0.159164 -0.24115,-0.178455 -0.21704,-0.622184 v -2.831179 q -0.0482,-0.385851 -0.36655,-0.573953 z"
         style="font-style:normal;font-variant:normal;font-weight:normal;font-stretch:normal;font-family:'Blood and Blade';-inkscape-font-specification:'Blood and Blade';fill:#ff0000;stroke-width:0.26458332"
         id="path823"
         inkscape:connector-curvature="0" />
      <path
         d="m -239.81086,90.6446 0.0482,-0.04823 q -0.0386,-0.01447 -0.21222,-0.197748 l -1.17202,-1.249192 -0.082,0.03858 q -0.0531,0 -0.0434,0.07717 v 1.905138 l 0.01,0.120578 z m -1.43729,1.461409 q 0.25562,0.255626 0.98874,0.482313 0.47267,-0.15434 0.80064,-0.342442 0.16881,-0.07717 0.62218,-0.376205 0.12058,-0.08682 0.16881,-0.08199 l 0.0145,0.01447 v 0.01929 q 0,0.15434 -0.48231,0.56913 -0.24598,0.217041 -0.48714,0.299034 -0.13504,0.09646 -0.31832,0.183279 l -0.77171,0.352089 -0.082,0.04823 q -0.14469,0.0096 -0.19775,-0.115755 -0.0386,-0.125401 -0.25562,-0.149517 l -0.14952,-0.01447 q -0.40997,0 -0.85852,0.212217 l -0.45337,0.202572 -0.34244,0.197748 q -0.31833,0.207395 -0.40515,0.207395 v -0.03376 q 0.37621,-0.299034 0.5836,-0.458197 0.20257,-0.159164 0.51608,-0.559484 0.1881,-0.236333 0.22186,-0.670415 v -0.655947 l -0.005,-0.13987 -0.01,-1.099675 q -0.0145,-0.578776 -0.16881,-0.839225 -0.22186,-0.289388 -0.5016,-0.318327 h -0.31833 v -0.06752 h 0.0675 l 0.43408,-0.130224 0.90193,-0.236334 0.8344,-0.250803 0.0675,-0.0096 h 0.0482 l 0.0723,0.02412 q 0.0868,0.04823 0.23634,0.183279 0.18328,0.217041 0.31833,0.318327 l 1.40353,1.52411 0.0772,0.120578 q 0.005,0.130225 -0.31351,0.173633 l -0.91639,0.429259 -1.28778,0.578776 -0.0531,0.05305 z"
         style="font-style:normal;font-variant:normal;font-weight:normal;font-stretch:normal;font-family:'Blood and Blade';-inkscape-font-specification:'Blood and Blade';fill:#ff0000;stroke-width:0.26458332"
         id="path825"
         inkscape:connector-curvature="0" />
      <path
         d="m -236.83981,91.175144 q -0.0482,0.07235 -0.0482,0.520899 l 0.005,0.472667 q 0.0145,0.265272 0.35691,0.463021 l 0.10611,0.0096 q 0.32798,-0.149517 0.58843,-0.516075 l 0.0675,-0.05306 h 0.0193 q -0.13505,0.699354 -0.91639,1.225076 l -0.13505,0.02894 q -0.23634,-0.255626 -0.50161,-0.303858 h -0.11575 q -0.26045,0 -0.82476,0.212218 -0.38585,0.197749 -0.72829,0.467844 l -0.0145,-0.01929 v -0.01447 q 0,-0.04341 0.51607,-0.651123 0.16399,-0.207395 0.37139,-0.540191 0.24598,-0.395497 0.29903,-0.964626 l -0.0193,-4.172011 q -0.0338,-0.491959 -0.22669,-0.660769 -0.14469,-0.115755 -0.36173,-0.115755 v -0.01447 q 0.0675,-0.15434 0.14951,-0.15434 l 0.10129,-0.01447 h 0.16881 q 0.23151,0 0.51607,0.265272 0.0289,-0.115755 0.0724,-0.24598 0.28939,-0.72347 0.67524,-0.887456 0.22186,-0.115755 0.33762,-0.09646 h 0.16881 q 0.46784,0.159163 0.46784,0.255626 v 0.06752 l -0.0482,0.04823 q -0.11576,-0.101285 -0.32315,-0.101285 h -0.0289 q -0.49196,0.05305 -0.68006,0.921218 l -0.053,0.511252 -0.01,1.53858 q -0.0386,0.207394 0.1254,0.197748 l 0.68006,-0.270095 q 0.2074,-0.110932 0.47267,-0.207395 h 0.10129 q 0.0916,0.05305 0.22668,0.24598 l 0.86817,1.104497 v 0.02412 l 0.0241,0.02412 q -0.0145,0.05305 -0.23633,0.135047 l -0.54502,0.284565 q -0.01,0.0096 -0.0241,0.01447 l -0.0193,0.0096 v 0.0096 q 0,0.03858 0.16881,0.08199 0.27974,0.207395 0.43408,0.525722 0.22669,0.762055 0.64147,1.832791 0.13505,0.08199 0.25563,0.0048 0.41961,-0.381028 0.43891,-0.704178 h 0.0482 v 0.04823 q -0.0434,0.448551 -0.47267,0.906749 -0.11093,0.135047 -0.35691,0.250803 -0.21704,0.09646 -0.28457,0.09646 -0.22668,0 -0.45819,-0.366558 -0.12058,-0.16881 -0.19293,-0.47749 -0.14952,-0.381028 -0.34727,-1.061089 l -0.0338,-0.08199 q -0.10128,-0.342442 -0.30868,-0.496782 l -0.49678,0.0048 q -0.082,0 -0.35209,0.130224 -0.22669,0.115756 -0.30868,0.250803 z m 1.40836,-1.229899 q -0.47267,-0.63183 -0.7283,-0.988742 l -0.10128,0.0096 q -0.11094,0.03858 -0.53537,0.250803 -0.12058,0.03858 -0.10129,0.318327 l 0.005,0.964627 q 0.0145,0.202571 0.1881,0.192925 z"
         style="font-style:normal;font-variant:normal;font-weight:normal;font-stretch:normal;font-family:'Blood and Blade';-inkscape-font-specification:'Blood and Blade';fill:#ff0000;stroke-width:0.26458332"
         id="path827"
         inkscape:connector-curvature="0" />
      <path
         d="m -229.94755,89.216952 q -0.32315,0.110932 -0.59807,0.120578 -0.53537,-0.02894 -0.90675,-0.221864 h -0.0338 l 0.005,1.176845 0.0241,0.163986 0.42443,0.0048 z m -2.26687,3.21703 q 0.4389,-0.241157 1.18166,-0.279742 0.29904,0.01447 0.62219,0.09164 0.17845,0.0627 0.26527,0.120578 0.10611,-0.916395 0.0675,-1.44694 l -0.0627,-0.06752 -0.68971,-0.0048 z m 0.3135,0.496783 q -0.5209,0.101286 -0.84887,0.30868 -0.38103,0.178456 -0.69453,0.419613 l -0.2701,0.183279 -0.0482,-0.0048 q 0,-0.101286 0.22186,-0.347266 0.13023,-0.241156 0.45338,-0.569129 l 1.8135,-2.098063 -0.55466,0.01929 q -0.54019,0.07235 -0.82476,0.197749 v -0.01929 q 0.28457,-0.694531 0.24116,-1.456586 -0.0434,-0.573953 -0.36656,-0.573953 h -0.10129 l -0.5209,0.0627 v -0.03376 q 0,-0.05306 0.50643,-0.149517 0.41962,-0.110933 0.94051,-0.26045 0.44373,-0.144694 0.81029,-0.284565 h 0.0482 l 0.25081,0.139871 0.28938,0.07717 q 0.49196,0.07235 0.70418,0.01447 l 0.33762,-0.03376 q 0.2508,-0.0627 0.48714,-0.183279 0.17845,-0.04823 0.35209,-0.217041 l 0.13504,-0.04823 0.0338,0.135047 -0.6897,0.718647 -1.30707,1.52411 0.30386,-0.0048 q 0.5016,0.06752 1.00803,0.192925 0.21222,0.03376 0.54984,0.202572 v 0.01929 q -0.17846,0.120578 -0.22669,0.260449 -0.0868,0.144694 -0.13022,0.545014 -0.0289,0.704177 0.33279,0.959803 v 0.01447 q 0,0.04823 -0.0675,0.04823 l -0.10129,-0.03376 v 0.01929 l -0.0145,-0.01929 h -0.0675 q -0.56913,0 -1.21543,0.347266 l -0.45338,0.284565 h -0.0338 q -0.0338,0 -0.0723,-0.110932 -0.31351,-0.26045 -0.83441,-0.274919 -0.24115,0 -0.3762,0.02894 z"
         style="font-style:normal;font-variant:normal;font-weight:normal;font-stretch:normal;font-family:'Blood and Blade';-inkscape-font-specification:'Blood and Blade';fill:#ff0000;stroke-width:0.26458332"
         id="path829"
         inkscape:connector-curvature="0" />
      <path
         d="m -227.41058,86.429181 h 0.0338 q 0.0772,0 0.36656,0.265272 0.23151,0.115756 0.43408,0.115756 l 0.0482,-0.01447 0.0193,0.01447 h 0.0145 l 0.12058,-0.05306 0.0627,0.07235 -0.26527,0.163987 q -0.0531,0.04341 -0.16881,0.135047 -0.17363,0.120579 -0.42926,0.284565 -0.11576,0.09164 -0.35209,0.08199 -0.22669,-0.09164 -0.29903,-0.18328 -0.2701,-0.135047 -0.3328,-0.135047 l -0.15916,-0.01447 -0.0772,0.0048 -0.082,-0.0048 -0.0482,-0.01929 v -0.03376 q 0.0193,-0.05306 0.19293,-0.159164 0.17363,-0.106108 0.76688,-0.405143 0.0386,-0.0627 0.15434,-0.115755 z m 1.1479,6.453352 q -0.2508,0.217041 -0.33762,0.390674 l -0.13505,0.01447 q -0.37138,-0.101286 -0.71382,-0.381028 -0.20739,-0.139871 -0.20257,-0.535368 0.0145,-2.175233 -0.0145,-2.729893 -0.0675,-0.467844 -0.34244,-0.525722 l -0.28939,-0.02412 -0.2508,0.03376 q 0,-0.163987 0.10128,-0.163987 l 1.01286,-0.598068 h 0.0193 q 0.0675,0 0.18328,0.135047 0.32315,0.313504 0.57878,0.313504 l 0.13505,-0.01929 q 0.29903,-0.01929 0.49678,-0.115755 h 0.0193 l 0.0338,0.03376 q -0.01,0.03859 -0.29903,0.135048 -0.37138,0.207395 -0.41961,0.496783 -0.0772,0.202571 -0.0965,0.689708 v 1.958192 q 0.0241,0.448551 0.35209,0.559483 0.42444,-0.226687 0.81029,-0.327973 l 0.14952,0.03376 -0.005,0.09164 q -0.41479,0.188102 -0.78617,0.535367 z"
         style="font-style:normal;font-variant:normal;font-weight:normal;font-stretch:normal;font-family:'Blood and Blade';-inkscape-font-specification:'Blood and Blade';fill:#ff0000;stroke-width:0.26458332"
         id="path831"
         inkscape:connector-curvature="0" />
      <path
         d="m -223.79806,91.175144 q -0.0482,0.07235 -0.0482,0.520899 l 0.005,0.472667 q 0.0145,0.265272 0.35691,0.463021 l 0.10611,0.0096 q 0.32797,-0.149517 0.58842,-0.516075 l 0.0675,-0.05306 h 0.0193 q -0.13505,0.699354 -0.9164,1.225076 l -0.13505,0.02894 q -0.23633,-0.255626 -0.5016,-0.303858 h -0.11576 q -0.26045,0 -0.82475,0.212218 -0.38586,0.197749 -0.7283,0.467844 l -0.0145,-0.01929 v -0.01447 q 0,-0.04341 0.51608,-0.651123 0.16398,-0.207395 0.37138,-0.540191 0.24598,-0.395497 0.29903,-0.964626 l -0.0193,-4.172011 q -0.0338,-0.491959 -0.22669,-0.660769 -0.14469,-0.115755 -0.36173,-0.115755 v -0.01447 q 0.0675,-0.15434 0.14952,-0.15434 l 0.10128,-0.01447 h 0.16881 q 0.23151,0 0.51608,0.265272 0.0289,-0.115755 0.0723,-0.24598 0.28939,-0.72347 0.67524,-0.887456 0.22187,-0.115755 0.33762,-0.09646 h 0.16881 q 0.46785,0.159163 0.46785,0.255626 v 0.06752 l -0.0482,0.04823 q -0.11575,-0.101285 -0.32315,-0.101285 h -0.0289 q -0.49196,0.05305 -0.68007,0.921218 l -0.053,0.511252 -0.01,1.53858 q -0.0386,0.207394 0.1254,0.197748 l 0.68007,-0.270095 q 0.20739,-0.110932 0.47266,-0.207395 h 0.10129 q 0.0916,0.05305 0.22669,0.24598 l 0.86816,1.104497 v 0.02412 l 0.0241,0.02412 q -0.0145,0.05305 -0.23634,0.135047 l -0.54501,0.284565 q -0.01,0.0096 -0.0241,0.01447 l -0.0193,0.0096 v 0.0096 q 0,0.03858 0.16881,0.08199 0.27974,0.207395 0.43408,0.525722 0.22669,0.762055 0.64148,1.832791 0.13505,0.08199 0.25562,0.0048 0.41962,-0.381028 0.43891,-0.704178 h 0.0482 v 0.04823 q -0.0434,0.448551 -0.47267,0.906749 -0.11093,0.135047 -0.35691,0.250803 -0.21704,0.09646 -0.28456,0.09646 -0.22669,0 -0.4582,-0.366558 -0.12058,-0.16881 -0.19293,-0.47749 -0.14951,-0.381028 -0.34726,-1.061089 l -0.0338,-0.08199 q -0.10129,-0.342442 -0.30868,-0.496782 l -0.49679,0.0048 q -0.082,0 -0.35209,0.130224 -0.22668,0.115756 -0.30868,0.250803 z m 1.40836,-1.229899 q -0.47267,-0.63183 -0.72829,-0.988742 l -0.10129,0.0096 q -0.11093,0.03858 -0.53537,0.250803 -0.12058,0.03858 -0.10128,0.318327 l 0.005,0.964627 q 0.0145,0.202571 0.1881,0.192925 z"
         style="font-style:normal;font-variant:normal;font-weight:normal;font-stretch:normal;font-family:'Blood and Blade';-inkscape-font-specification:'Blood and Blade';fill:#ff0000;stroke-width:0.26458332"
         id="path833"
         inkscape:connector-curvature="0" />
      <path
         d="m -216.94438,92.274819 q 0.15434,-0.217041 0.15434,-0.371382 l -0.005,-2.329573 q 0.01,-0.207395 -0.24115,-0.327973 -0.0916,-0.09164 -0.74277,-0.41479 l -0.6463,0.110933 -0.0386,0.115755 v 3.004812 q 0.0289,0.120578 0.17846,0.274918 0.23151,0.236334 0.35691,0.26045 l 0.12058,0.04823 z m -1.00804,0.771701 -0.29421,0.236334 -0.12058,-0.0048 q -0.1881,-0.23151 -0.5209,-0.265272 -0.63183,0 -1.26848,0.32315 -0.23633,0.06752 -0.29421,0.115755 l -0.082,-0.03376 v -0.01447 q 0.23633,-0.125402 0.49196,-0.318327 0.627,-0.496783 0.67041,-1.012858 l -0.005,-2.189702 q 0.01,-0.424436 -0.0531,-0.588423 -0.13022,-0.356912 -0.54019,-0.356912 l -0.37138,0.01447 h -0.0145 v -0.01929 l 0.0338,-0.08199 q 0.48714,-0.02894 1.07074,-0.120578 l 2.04018,-0.390674 0.12541,-0.0096 q 0.27491,0.02411 0.6897,0.352088 l 0.0965,0.02412 q 0.3135,-0.04823 1.05626,-0.313504 0.34727,-0.144694 0.82958,-0.255626 l 0.0145,0.03376 q -0.3135,0.15434 -0.57395,0.33762 -0.86817,0.704177 -0.85852,1.191313 v 1.943723 q 0.01,0.419613 0.1254,0.487137 l 0.47267,0.241156 q 0.29421,0.125402 0.60289,0.506429 v 0.01929 h -0.0338 q -0.53537,-0.318327 -1.55787,-0.361735 l -0.40997,0.02894 q -0.50643,0.05788 -1.32154,0.482313 z"
         style="font-style:normal;font-variant:normal;font-weight:normal;font-stretch:normal;font-family:'Blood and Blade';-inkscape-font-specification:'Blood and Blade';fill:#ff0000;stroke-width:0.26458332"
         id="path835"
         inkscape:connector-curvature="0" />
    </g>
    <g
       id="g852"
       style="font-style:normal;font-variant:normal;font-weight:normal;font-stretch:normal;font-size:9.8777771px;line-height:1.25;font-family:mononoki;-inkscape-font-specification:mononoki;letter-spacing:0px;word-spacing:0px;fill:#ff0000;fill-opacity:1;stroke:none;stroke-width:0.26458332"
       aria-label="meksiko"
       transform="rotate(90,-228.69622,70.456874)">
      <path
         inkscape:connector-curvature="0"
         id="path838"
         style="font-style:normal;font-variant:normal;font-weight:normal;font-stretch:normal;font-family:'Blood and Blade';-inkscape-font-specification:'Blood and Blade';fill:#ff0000;stroke-width:0.26458332"
         d="m -246.32691,89.467755 -0.0627,0.183279 v 2.421213 q -0.005,0.376204 0.10128,0.429259 0.16881,0 0.34245,-0.327973 l 0.0338,-0.135048 h 0.0193 l 0.082,0.01929 v 0.04823 l -0.0482,0.149517 -0.0241,0.110932 q -0.0675,0.409967 -0.2074,0.554661 -0.0965,0.178455 -0.41961,0.332796 -0.15434,0.03376 -0.17846,0 -0.13987,-0.08199 -0.42926,-0.371382 -0.24115,-0.110932 -0.45337,-0.05305 l -0.0193,-0.01447 v -0.01929 q 0.30868,-0.429259 0.34244,-0.689708 v -2.614138 q 0,-0.0627 -0.0434,-0.09164 l -0.0724,-0.110932 v -0.01447 q -0.0627,-0.120579 -0.16881,-0.202572 l -0.0579,-0.03376 -1.19132,0.496783 -0.0241,0.144694 -0.0289,-0.0096 v 2.392274 q 0.01,0.236333 0.23633,0.356912 0.13987,0.101285 0.30386,0.101285 0.10611,0 0.23633,-0.299034 0,-0.08682 0.0531,-0.08682 0.0627,0 0.10128,0.188102 -0.005,0.236334 -0.51125,0.786171 l -0.24116,0.163986 q -0.13987,0 -0.22668,-0.130224 -0.11576,-0.120579 -0.36174,-0.154341 -0.66559,-0.01447 -1.53375,0.381028 -0.36656,0.217041 -0.47267,0.217041 l -0.0193,-0.01929 v -0.01929 q 0.0289,-0.0627 0.45337,-0.347266 0.2508,-0.188102 0.56431,-0.506429 0.29903,-0.260449 0.39549,-0.55466 v -2.657547 q -0.01,-0.163986 -0.14469,-0.289388 -0.0772,-0.09164 -0.23151,-0.13987 -0.24116,-0.03858 -0.5209,0.04823 l -0.0482,-0.06752 q 0.0145,-0.07235 0.13505,-0.115755 0.39549,-0.236334 0.94533,-0.434082 0.10129,-0.03858 0.30386,-0.101286 h 0.0193 q 0.29904,0.07717 0.49678,0.347266 l 0.0868,0.332796 0.0868,0.01929 1.6061,-0.733116 h 0.0145 q 0.32315,0.02894 0.57395,0.337619 0.0916,0.144694 0.13023,0.274919 l 0.0868,0.115755 q 1.35048,-0.6463 1.52411,-0.72347 0.14952,-0.05788 0.22669,0.03376 0.16399,0.101286 0.28457,0.202572 0.12057,0.09646 0.25562,0.09646 0.71383,-0.366558 0.96463,-0.366558 l 0.20257,-0.01447 0.0338,0.06752 q -0.13987,0.0096 -0.26527,0.09164 -0.33762,0.192926 -0.66559,0.578776 -0.2074,0.202572 -0.2074,0.689708 l 0.005,2.614139 q 0.0723,0.212218 0.16398,0.226687 0.47267,-0.376204 0.89711,-0.376204 l 0.0145,0.01929 v 0.03376 q -0.082,0 -0.36655,0.270095 -0.34727,0.270096 -0.53537,0.56913 -0.13505,0.183279 -0.22187,0.188102 -0.14951,0.05788 -0.42925,-0.09164 -0.13987,-0.08199 -0.20258,-0.159164 -0.24115,-0.178455 -0.21704,-0.622184 v -2.831179 q -0.0482,-0.385851 -0.36655,-0.573953 z" />
      <path
         inkscape:connector-curvature="0"
         id="path840"
         style="font-style:normal;font-variant:normal;font-weight:normal;font-stretch:normal;font-family:'Blood and Blade';-inkscape-font-specification:'Blood and Blade';fill:#ff0000;stroke-width:0.26458332"
         d="m -239.81086,90.6446 0.0482,-0.04823 q -0.0386,-0.01447 -0.21222,-0.197748 l -1.17202,-1.249192 -0.082,0.03858 q -0.0531,0 -0.0434,0.07717 v 1.905138 l 0.01,0.120578 z m -1.43729,1.461409 q 0.25562,0.255626 0.98874,0.482313 0.47267,-0.15434 0.80064,-0.342442 0.16881,-0.07717 0.62218,-0.376205 0.12058,-0.08682 0.16881,-0.08199 l 0.0145,0.01447 v 0.01929 q 0,0.15434 -0.48231,0.56913 -0.24598,0.217041 -0.48714,0.299034 -0.13504,0.09646 -0.31832,0.183279 l -0.77171,0.352089 -0.082,0.04823 q -0.14469,0.0096 -0.19775,-0.115755 -0.0386,-0.125401 -0.25562,-0.149517 l -0.14952,-0.01447 q -0.40997,0 -0.85852,0.212217 l -0.45337,0.202572 -0.34244,0.197748 q -0.31833,0.207395 -0.40515,0.207395 v -0.03376 q 0.37621,-0.299034 0.5836,-0.458197 0.20257,-0.159164 0.51608,-0.559484 0.1881,-0.236333 0.22186,-0.670415 v -0.655947 l -0.005,-0.13987 -0.01,-1.099675 q -0.0145,-0.578776 -0.16881,-0.839225 -0.22186,-0.289388 -0.5016,-0.318327 h -0.31833 v -0.06752 h 0.0675 l 0.43408,-0.130224 0.90193,-0.236334 0.8344,-0.250803 0.0675,-0.0096 h 0.0482 l 0.0723,0.02412 q 0.0868,0.04823 0.23634,0.183279 0.18328,0.217041 0.31833,0.318327 l 1.40353,1.52411 0.0772,0.120578 q 0.005,0.130225 -0.31351,0.173633 l -0.91639,0.429259 -1.28778,0.578776 -0.0531,0.05305 z" />
      <path
         inkscape:connector-curvature="0"
         id="path842"
         style="font-style:normal;font-variant:normal;font-weight:normal;font-stretch:normal;font-family:'Blood and Blade';-inkscape-font-specification:'Blood and Blade';fill:#ff0000;stroke-width:0.26458332"
         d="m -236.83981,91.175144 q -0.0482,0.07235 -0.0482,0.520899 l 0.005,0.472667 q 0.0145,0.265272 0.35691,0.463021 l 0.10611,0.0096 q 0.32798,-0.149517 0.58843,-0.516075 l 0.0675,-0.05306 h 0.0193 q -0.13505,0.699354 -0.91639,1.225076 l -0.13505,0.02894 q -0.23634,-0.255626 -0.50161,-0.303858 h -0.11575 q -0.26045,0 -0.82476,0.212218 -0.38585,0.197749 -0.72829,0.467844 l -0.0145,-0.01929 v -0.01447 q 0,-0.04341 0.51607,-0.651123 0.16399,-0.207395 0.37139,-0.540191 0.24598,-0.395497 0.29903,-0.964626 l -0.0193,-4.172011 q -0.0338,-0.491959 -0.22669,-0.660769 -0.14469,-0.115755 -0.36173,-0.115755 v -0.01447 q 0.0675,-0.15434 0.14951,-0.15434 l 0.10129,-0.01447 h 0.16881 q 0.23151,0 0.51607,0.265272 0.0289,-0.115755 0.0724,-0.24598 0.28939,-0.72347 0.67524,-0.887456 0.22186,-0.115755 0.33762,-0.09646 h 0.16881 q 0.46784,0.159163 0.46784,0.255626 v 0.06752 l -0.0482,0.04823 q -0.11576,-0.101285 -0.32315,-0.101285 h -0.0289 q -0.49196,0.05305 -0.68006,0.921218 l -0.053,0.511252 -0.01,1.53858 q -0.0386,0.207394 0.1254,0.197748 l 0.68006,-0.270095 q 0.2074,-0.110932 0.47267,-0.207395 h 0.10129 q 0.0916,0.05305 0.22668,0.24598 l 0.86817,1.104497 v 0.02412 l 0.0241,0.02412 q -0.0145,0.05305 -0.23633,0.135047 l -0.54502,0.284565 q -0.01,0.0096 -0.0241,0.01447 l -0.0193,0.0096 v 0.0096 q 0,0.03858 0.16881,0.08199 0.27974,0.207395 0.43408,0.525722 0.22669,0.762055 0.64147,1.832791 0.13505,0.08199 0.25563,0.0048 0.41961,-0.381028 0.43891,-0.704178 h 0.0482 v 0.04823 q -0.0434,0.448551 -0.47267,0.906749 -0.11093,0.135047 -0.35691,0.250803 -0.21704,0.09646 -0.28457,0.09646 -0.22668,0 -0.45819,-0.366558 -0.12058,-0.16881 -0.19293,-0.47749 -0.14952,-0.381028 -0.34727,-1.061089 l -0.0338,-0.08199 q -0.10128,-0.342442 -0.30868,-0.496782 l -0.49678,0.0048 q -0.082,0 -0.35209,0.130224 -0.22669,0.115756 -0.30868,0.250803 z m 1.40836,-1.229899 q -0.47267,-0.63183 -0.7283,-0.988742 l -0.10128,0.0096 q -0.11094,0.03858 -0.53537,0.250803 -0.12058,0.03858 -0.10129,0.318327 l 0.005,0.964627 q 0.0145,0.202571 0.1881,0.192925 z" />
      <path
         inkscape:connector-curvature="0"
         id="path844"
         style="font-style:normal;font-variant:normal;font-weight:normal;font-stretch:normal;font-family:'Blood and Blade';-inkscape-font-specification:'Blood and Blade';fill:#ff0000;stroke-width:0.26458332"
         d="m -229.94755,89.216952 q -0.32315,0.110932 -0.59807,0.120578 -0.53537,-0.02894 -0.90675,-0.221864 h -0.0338 l 0.005,1.176845 0.0241,0.163986 0.42443,0.0048 z m -2.26687,3.21703 q 0.4389,-0.241157 1.18166,-0.279742 0.29904,0.01447 0.62219,0.09164 0.17845,0.0627 0.26527,0.120578 0.10611,-0.916395 0.0675,-1.44694 l -0.0627,-0.06752 -0.68971,-0.0048 z m 0.3135,0.496783 q -0.5209,0.101286 -0.84887,0.30868 -0.38103,0.178456 -0.69453,0.419613 l -0.2701,0.183279 -0.0482,-0.0048 q 0,-0.101286 0.22186,-0.347266 0.13023,-0.241156 0.45338,-0.569129 l 1.8135,-2.098063 -0.55466,0.01929 q -0.54019,0.07235 -0.82476,0.197749 v -0.01929 q 0.28457,-0.694531 0.24116,-1.456586 -0.0434,-0.573953 -0.36656,-0.573953 h -0.10129 l -0.5209,0.0627 v -0.03376 q 0,-0.05306 0.50643,-0.149517 0.41962,-0.110933 0.94051,-0.26045 0.44373,-0.144694 0.81029,-0.284565 h 0.0482 l 0.25081,0.139871 0.28938,0.07717 q 0.49196,0.07235 0.70418,0.01447 l 0.33762,-0.03376 q 0.2508,-0.0627 0.48714,-0.183279 0.17845,-0.04823 0.35209,-0.217041 l 0.13504,-0.04823 0.0338,0.135047 -0.6897,0.718647 -1.30707,1.52411 0.30386,-0.0048 q 0.5016,0.06752 1.00803,0.192925 0.21222,0.03376 0.54984,0.202572 v 0.01929 q -0.17846,0.120578 -0.22669,0.260449 -0.0868,0.144694 -0.13022,0.545014 -0.0289,0.704177 0.33279,0.959803 v 0.01447 q 0,0.04823 -0.0675,0.04823 l -0.10129,-0.03376 v 0.01929 l -0.0145,-0.01929 h -0.0675 q -0.56913,0 -1.21543,0.347266 l -0.45338,0.284565 h -0.0338 q -0.0338,0 -0.0723,-0.110932 -0.31351,-0.26045 -0.83441,-0.274919 -0.24115,0 -0.3762,0.02894 z" />
      <path
         inkscape:connector-curvature="0"
         id="path846"
         style="font-style:normal;font-variant:normal;font-weight:normal;font-stretch:normal;font-family:'Blood and Blade';-inkscape-font-specification:'Blood and Blade';fill:#ff0000;stroke-width:0.26458332"
         d="m -227.41058,86.429181 h 0.0338 q 0.0772,0 0.36656,0.265272 0.23151,0.115756 0.43408,0.115756 l 0.0482,-0.01447 0.0193,0.01447 h 0.0145 l 0.12058,-0.05306 0.0627,0.07235 -0.26527,0.163987 q -0.0531,0.04341 -0.16881,0.135047 -0.17363,0.120579 -0.42926,0.284565 -0.11576,0.09164 -0.35209,0.08199 -0.22669,-0.09164 -0.29903,-0.18328 -0.2701,-0.135047 -0.3328,-0.135047 l -0.15916,-0.01447 -0.0772,0.0048 -0.082,-0.0048 -0.0482,-0.01929 v -0.03376 q 0.0193,-0.05306 0.19293,-0.159164 0.17363,-0.106108 0.76688,-0.405143 0.0386,-0.0627 0.15434,-0.115755 z m 1.1479,6.453352 q -0.2508,0.217041 -0.33762,0.390674 l -0.13505,0.01447 q -0.37138,-0.101286 -0.71382,-0.381028 -0.20739,-0.139871 -0.20257,-0.535368 0.0145,-2.175233 -0.0145,-2.729893 -0.0675,-0.467844 -0.34244,-0.525722 l -0.28939,-0.02412 -0.2508,0.03376 q 0,-0.163987 0.10128,-0.163987 l 1.01286,-0.598068 h 0.0193 q 0.0675,0 0.18328,0.135047 0.32315,0.313504 0.57878,0.313504 l 0.13505,-0.01929 q 0.29903,-0.01929 0.49678,-0.115755 h 0.0193 l 0.0338,0.03376 q -0.01,0.03859 -0.29903,0.135048 -0.37138,0.207395 -0.41961,0.496783 -0.0772,0.202571 -0.0965,0.689708 v 1.958192 q 0.0241,0.448551 0.35209,0.559483 0.42444,-0.226687 0.81029,-0.327973 l 0.14952,0.03376 -0.005,0.09164 q -0.41479,0.188102 -0.78617,0.535367 z" />
      <path
         inkscape:connector-curvature="0"
         id="path848"
         style="font-style:normal;font-variant:normal;font-weight:normal;font-stretch:normal;font-family:'Blood and Blade';-inkscape-font-specification:'Blood and Blade';fill:#ff0000;stroke-width:0.26458332"
         d="m -223.79806,91.175144 q -0.0482,0.07235 -0.0482,0.520899 l 0.005,0.472667 q 0.0145,0.265272 0.35691,0.463021 l 0.10611,0.0096 q 0.32797,-0.149517 0.58842,-0.516075 l 0.0675,-0.05306 h 0.0193 q -0.13505,0.699354 -0.9164,1.225076 l -0.13505,0.02894 q -0.23633,-0.255626 -0.5016,-0.303858 h -0.11576 q -0.26045,0 -0.82475,0.212218 -0.38586,0.197749 -0.7283,0.467844 l -0.0145,-0.01929 v -0.01447 q 0,-0.04341 0.51608,-0.651123 0.16398,-0.207395 0.37138,-0.540191 0.24598,-0.395497 0.29903,-0.964626 l -0.0193,-4.172011 q -0.0338,-0.491959 -0.22669,-0.660769 -0.14469,-0.115755 -0.36173,-0.115755 v -0.01447 q 0.0675,-0.15434 0.14952,-0.15434 l 0.10128,-0.01447 h 0.16881 q 0.23151,0 0.51608,0.265272 0.0289,-0.115755 0.0723,-0.24598 0.28939,-0.72347 0.67524,-0.887456 0.22187,-0.115755 0.33762,-0.09646 h 0.16881 q 0.46785,0.159163 0.46785,0.255626 v 0.06752 l -0.0482,0.04823 q -0.11575,-0.101285 -0.32315,-0.101285 h -0.0289 q -0.49196,0.05305 -0.68007,0.921218 l -0.053,0.511252 -0.01,1.53858 q -0.0386,0.207394 0.1254,0.197748 l 0.68007,-0.270095 q 0.20739,-0.110932 0.47266,-0.207395 h 0.10129 q 0.0916,0.05305 0.22669,0.24598 l 0.86816,1.104497 v 0.02412 l 0.0241,0.02412 q -0.0145,0.05305 -0.23634,0.135047 l -0.54501,0.284565 q -0.01,0.0096 -0.0241,0.01447 l -0.0193,0.0096 v 0.0096 q 0,0.03858 0.16881,0.08199 0.27974,0.207395 0.43408,0.525722 0.22669,0.762055 0.64148,1.832791 0.13505,0.08199 0.25562,0.0048 0.41962,-0.381028 0.43891,-0.704178 h 0.0482 v 0.04823 q -0.0434,0.448551 -0.47267,0.906749 -0.11093,0.135047 -0.35691,0.250803 -0.21704,0.09646 -0.28456,0.09646 -0.22669,0 -0.4582,-0.366558 -0.12058,-0.16881 -0.19293,-0.47749 -0.14951,-0.381028 -0.34726,-1.061089 l -0.0338,-0.08199 q -0.10129,-0.342442 -0.30868,-0.496782 l -0.49679,0.0048 q -0.082,0 -0.35209,0.130224 -0.22668,0.115756 -0.30868,0.250803 z m 1.40836,-1.229899 q -0.47267,-0.63183 -0.72829,-0.988742 l -0.10129,0.0096 q -0.11093,0.03858 -0.53537,0.250803 -0.12058,0.03858 -0.10128,0.318327 l 0.005,0.964627 q 0.0145,0.202571 0.1881,0.192925 z" />
      <path
         inkscape:connector-curvature="0"
         id="path850"
         style="font-style:normal;font-variant:normal;font-weight:normal;font-stretch:normal;font-family:'Blood and Blade';-inkscape-font-specification:'Blood and Blade';fill:#ff0000;stroke-width:0.26458332"
         d="m -216.94438,92.274819 q 0.15434,-0.217041 0.15434,-0.371382 l -0.005,-2.329573 q 0.01,-0.207395 -0.24115,-0.327973 -0.0916,-0.09164 -0.74277,-0.41479 l -0.6463,0.110933 -0.0386,0.115755 v 3.004812 q 0.0289,0.120578 0.17846,0.274918 0.23151,0.236334 0.35691,0.26045 l 0.12058,0.04823 z m -1.00804,0.771701 -0.29421,0.236334 -0.12058,-0.0048 q -0.1881,-0.23151 -0.5209,-0.265272 -0.63183,0 -1.26848,0.32315 -0.23633,0.06752 -0.29421,0.115755 l -0.082,-0.03376 v -0.01447 q 0.23633,-0.125402 0.49196,-0.318327 0.627,-0.496783 0.67041,-1.012858 l -0.005,-2.189702 q 0.01,-0.424436 -0.0531,-0.588423 -0.13022,-0.356912 -0.54019,-0.356912 l -0.37138,0.01447 h -0.0145 v -0.01929 l 0.0338,-0.08199 q 0.48714,-0.02894 1.07074,-0.120578 l 2.04018,-0.390674 0.12541,-0.0096 q 0.27491,0.02411 0.6897,0.352088 l 0.0965,0.02412 q 0.3135,-0.04823 1.05626,-0.313504 0.34727,-0.144694 0.82958,-0.255626 l 0.0145,0.03376 q -0.3135,0.15434 -0.57395,0.33762 -0.86817,0.704177 -0.85852,1.191313 v 1.943723 q 0.01,0.419613 0.1254,0.487137 l 0.47267,0.241156 q 0.29421,0.125402 0.60289,0.506429 v 0.01929 h -0.0338 q -0.53537,-0.318327 -1.55787,-0.361735 l -0.40997,0.02894 q -0.50643,0.05788 -1.32154,0.482313 z" />
    </g>
    <g
       id="g953">
      <g
         style="fill:#008000"
         transform="matrix(2.0435749,0,0,2.0435749,246.57917,-76.837055)"
         id="g880">
        <path
           inkscape:connector-curvature="0"
           id="path854"
           style="font-style:normal;font-variant:normal;font-weight:normal;font-stretch:normal;font-size:9.8777771px;line-height:1.25;font-family:'Blood and Blade';-inkscape-font-specification:'Blood and Blade';letter-spacing:0px;word-spacing:0px;fill:#008000;fill-opacity:1;stroke:none;stroke-width:0.26458332"
           d="m -213.9873,74.043157 -0.0627,0.183279 v 2.421213 q -0.005,0.376204 0.10128,0.429259 0.16881,0 0.34245,-0.327973 l 0.0338,-0.135048 h 0.0193 l 0.082,0.01929 v 0.04823 l -0.0482,0.149517 -0.0241,0.110932 q -0.0675,0.409967 -0.2074,0.554661 -0.0965,0.178455 -0.41961,0.332796 -0.15434,0.03376 -0.17846,0 -0.13987,-0.08199 -0.42926,-0.371382 -0.24115,-0.110932 -0.45337,-0.05305 l -0.0193,-0.01447 v -0.01929 q 0.30868,-0.429259 0.34244,-0.689708 v -2.614138 q 0,-0.0627 -0.0434,-0.09164 l -0.0724,-0.110932 v -0.01447 q -0.0627,-0.120579 -0.16881,-0.202572 l -0.0579,-0.03376 -1.19132,0.496783 -0.0241,0.144694 -0.0289,-0.0096 v 2.392274 q 0.01,0.236333 0.23633,0.356912 0.13987,0.101285 0.30386,0.101285 0.10611,0 0.23633,-0.299034 0,-0.08682 0.0531,-0.08682 0.0627,0 0.10128,0.188102 -0.005,0.236334 -0.51125,0.786171 l -0.24116,0.163986 q -0.13987,0 -0.22668,-0.130224 -0.11576,-0.120579 -0.36174,-0.154341 -0.66559,-0.01447 -1.53375,0.381028 -0.36656,0.217041 -0.47267,0.217041 l -0.0193,-0.01929 v -0.01929 q 0.0289,-0.0627 0.45337,-0.347266 0.2508,-0.188102 0.56431,-0.506429 0.29903,-0.260449 0.39549,-0.55466 v -2.657547 q -0.01,-0.163986 -0.14469,-0.289388 -0.0772,-0.09164 -0.23151,-0.13987 -0.24116,-0.03858 -0.5209,0.04823 l -0.0482,-0.06752 q 0.0145,-0.07235 0.13505,-0.115755 0.39549,-0.236334 0.94533,-0.434082 0.10129,-0.03858 0.30386,-0.101286 h 0.0193 q 0.29904,0.07717 0.49678,0.347266 l 0.0868,0.332796 0.0868,0.01929 1.6061,-0.733116 h 0.0145 q 0.32315,0.02894 0.57395,0.337619 0.0916,0.144694 0.13023,0.274919 l 0.0868,0.115755 q 1.35048,-0.6463 1.52411,-0.72347 0.14952,-0.05788 0.22669,0.03376 0.16399,0.101286 0.28457,0.202572 0.12057,0.09646 0.25562,0.09646 0.71383,-0.366558 0.96463,-0.366558 l 0.20257,-0.01447 0.0338,0.06752 q -0.13987,0.0096 -0.26527,0.09164 -0.33762,0.192926 -0.66559,0.578776 -0.2074,0.202572 -0.2074,0.689708 l 0.005,2.614139 q 0.0723,0.212218 0.16398,0.226687 0.47267,-0.376204 0.89711,-0.376204 l 0.0145,0.01929 v 0.03376 q -0.082,0 -0.36655,0.270095 -0.34727,0.270096 -0.53537,0.56913 -0.13505,0.183279 -0.22187,0.188102 -0.14951,0.05788 -0.42925,-0.09164 -0.13987,-0.08199 -0.20258,-0.159164 -0.24115,-0.178455 -0.21704,-0.622184 v -2.831179 q -0.0482,-0.385851 -0.36655,-0.573953 z" />
        <path
           inkscape:connector-curvature="0"
           id="path856"
           style="font-style:normal;font-variant:normal;font-weight:normal;font-stretch:normal;font-size:9.8777771px;line-height:1.25;font-family:'Blood and Blade';-inkscape-font-specification:'Blood and Blade';letter-spacing:0px;word-spacing:0px;fill:#008000;fill-opacity:1;stroke:none;stroke-width:0.26458332"
           d="m -207.47125,75.220002 0.0482,-0.04823 q -0.0386,-0.01447 -0.21222,-0.197748 l -1.17202,-1.249192 -0.082,0.03858 q -0.0531,0 -0.0434,0.07717 v 1.905138 l 0.01,0.120578 z m -1.43729,1.461409 q 0.25562,0.255626 0.98874,0.482313 0.47267,-0.15434 0.80064,-0.342442 0.16881,-0.07717 0.62218,-0.376205 0.12058,-0.08682 0.16881,-0.08199 l 0.0145,0.01447 v 0.01929 q 0,0.15434 -0.48231,0.56913 -0.24598,0.217041 -0.48714,0.299034 -0.13504,0.09646 -0.31832,0.183279 l -0.77171,0.352089 -0.082,0.04823 q -0.14469,0.0096 -0.19775,-0.115755 -0.0386,-0.125401 -0.25562,-0.149517 l -0.14952,-0.01447 q -0.40997,0 -0.85852,0.212217 l -0.45337,0.202572 -0.34244,0.197748 q -0.31833,0.207395 -0.40515,0.207395 v -0.03376 q 0.37621,-0.299034 0.5836,-0.458197 0.20257,-0.159164 0.51608,-0.559484 0.1881,-0.236333 0.22186,-0.670415 v -0.655947 l -0.005,-0.13987 -0.01,-1.099675 q -0.0145,-0.578776 -0.16881,-0.839225 -0.22186,-0.289388 -0.5016,-0.318327 h -0.31833 v -0.06752 h 0.0675 l 0.43408,-0.130224 0.90193,-0.236334 0.8344,-0.250803 0.0675,-0.0096 h 0.0482 l 0.0723,0.02412 q 0.0868,0.04823 0.23634,0.183279 0.18328,0.217041 0.31833,0.318327 l 1.40353,1.52411 0.0772,0.120578 q 0.005,0.130225 -0.31351,0.173633 l -0.91639,0.429259 -1.28778,0.578776 -0.0531,0.05305 z" />
        <path
           inkscape:connector-curvature="0"
           id="path858"
           style="font-style:normal;font-variant:normal;font-weight:normal;font-stretch:normal;font-size:9.8777771px;line-height:1.25;font-family:'Blood and Blade';-inkscape-font-specification:'Blood and Blade';letter-spacing:0px;word-spacing:0px;fill:#008000;fill-opacity:1;stroke:none;stroke-width:0.26458332"
           d="m -204.5002,75.750546 q -0.0482,0.07235 -0.0482,0.520899 l 0.005,0.472667 q 0.0145,0.265272 0.35691,0.463021 l 0.10611,0.0096 q 0.32798,-0.149517 0.58843,-0.516075 l 0.0675,-0.05306 h 0.0193 q -0.13505,0.699354 -0.91639,1.225076 l -0.13505,0.02894 q -0.23634,-0.255626 -0.50161,-0.303858 h -0.11575 q -0.26045,0 -0.82476,0.212218 -0.38585,0.197749 -0.72829,0.467844 l -0.0145,-0.01929 v -0.01447 q 0,-0.04341 0.51607,-0.651123 0.16399,-0.207395 0.37139,-0.540191 0.24598,-0.395497 0.29903,-0.964626 l -0.0193,-4.172011 q -0.0338,-0.491959 -0.22669,-0.660769 -0.14469,-0.115755 -0.36173,-0.115755 v -0.01447 q 0.0675,-0.15434 0.14951,-0.15434 l 0.10129,-0.01447 h 0.16881 q 0.23151,0 0.51607,0.265272 0.0289,-0.115755 0.0724,-0.24598 0.28939,-0.72347 0.67524,-0.887456 0.22186,-0.115755 0.33762,-0.09646 h 0.16881 q 0.46784,0.159163 0.46784,0.255626 v 0.06752 l -0.0482,0.04823 q -0.11576,-0.101285 -0.32315,-0.101285 h -0.0289 q -0.49196,0.05305 -0.68006,0.921218 l -0.053,0.511252 -0.01,1.53858 q -0.0386,0.207394 0.1254,0.197748 l 0.68006,-0.270095 q 0.2074,-0.110932 0.47267,-0.207395 h 0.10129 q 0.0916,0.05305 0.22668,0.24598 l 0.86817,1.104497 v 0.02412 l 0.0241,0.02412 q -0.0145,0.05305 -0.23633,0.135047 l -0.54502,0.284565 q -0.01,0.0096 -0.0241,0.01447 l -0.0193,0.0096 v 0.0096 q 0,0.03858 0.16881,0.08199 0.27974,0.207395 0.43408,0.525722 0.22669,0.762055 0.64147,1.832791 0.13505,0.08199 0.25563,0.0048 0.41961,-0.381028 0.43891,-0.704178 h 0.0482 v 0.04823 q -0.0434,0.448551 -0.47267,0.906749 -0.11093,0.135047 -0.35691,0.250803 -0.21704,0.09646 -0.28457,0.09646 -0.22668,0 -0.45819,-0.366558 -0.12058,-0.16881 -0.19293,-0.47749 -0.14952,-0.381028 -0.34727,-1.061089 l -0.0338,-0.08199 q -0.10128,-0.342442 -0.30868,-0.496782 l -0.49678,0.0048 q -0.082,0 -0.35209,0.130224 -0.22669,0.115756 -0.30868,0.250803 z m 1.40836,-1.229899 q -0.47267,-0.63183 -0.7283,-0.988742 l -0.10128,0.0096 q -0.11094,0.03858 -0.53537,0.250803 -0.12058,0.03858 -0.10129,0.318327 l 0.005,0.964627 q 0.0145,0.202571 0.1881,0.192925 z" />
      </g>
      <g
         style="fill:#008000"
         transform="matrix(1.9041147,0,0,1.9041147,182.70997,-46.25323)"
         id="g886">
        <path
           inkscape:connector-curvature="0"
           id="path860"
           style="font-style:normal;font-variant:normal;font-weight:normal;font-stretch:normal;font-size:9.8777771px;line-height:1.25;font-family:'Blood and Blade';-inkscape-font-specification:'Blood and Blade';letter-spacing:0px;word-spacing:0px;fill:#008000;fill-opacity:1;stroke:none;stroke-width:0.26458332"
           d="m -197.60794,73.792354 q -0.32315,0.110932 -0.59807,0.120578 -0.53537,-0.02894 -0.90675,-0.221864 h -0.0338 l 0.005,1.176845 0.0241,0.163986 0.42443,0.0048 z m -2.26687,3.21703 q 0.4389,-0.241157 1.18166,-0.279742 0.29904,0.01447 0.62219,0.09164 0.17845,0.0627 0.26527,0.120578 0.10611,-0.916395 0.0675,-1.44694 l -0.0627,-0.06752 -0.68971,-0.0048 z m 0.3135,0.496783 q -0.5209,0.101286 -0.84887,0.30868 -0.38103,0.178456 -0.69453,0.419613 l -0.2701,0.183279 -0.0482,-0.0048 q 0,-0.101286 0.22186,-0.347266 0.13023,-0.241156 0.45338,-0.569129 l 1.8135,-2.098063 -0.55466,0.01929 q -0.54019,0.07235 -0.82476,0.197749 v -0.01929 q 0.28457,-0.694531 0.24116,-1.456586 -0.0434,-0.573953 -0.36656,-0.573953 h -0.10129 l -0.5209,0.0627 v -0.03376 q 0,-0.05306 0.50643,-0.149517 0.41962,-0.110933 0.94051,-0.26045 0.44373,-0.144694 0.81029,-0.284565 h 0.0482 l 0.25081,0.139871 0.28938,0.07717 q 0.49196,0.07235 0.70418,0.01447 l 0.33762,-0.03376 q 0.2508,-0.0627 0.48714,-0.183279 0.17845,-0.04823 0.35209,-0.217041 l 0.13504,-0.04823 0.0338,0.135047 -0.6897,0.718647 -1.30707,1.52411 0.30386,-0.0048 q 0.5016,0.06752 1.00803,0.192925 0.21222,0.03376 0.54984,0.202572 v 0.01929 q -0.17846,0.120578 -0.22669,0.260449 -0.0868,0.144694 -0.13022,0.545014 -0.0289,0.704177 0.33279,0.959803 v 0.01447 q 0,0.04823 -0.0675,0.04823 l -0.10129,-0.03376 v 0.01929 l -0.0145,-0.01929 h -0.0675 q -0.56913,0 -1.21543,0.347266 l -0.45338,0.284565 h -0.0338 q -0.0338,0 -0.0723,-0.110932 -0.31351,-0.26045 -0.83441,-0.274919 -0.24115,0 -0.3762,0.02894 z" />
        <path
           inkscape:connector-curvature="0"
           id="path862"
           style="font-style:normal;font-variant:normal;font-weight:normal;font-stretch:normal;font-size:9.8777771px;line-height:1.25;font-family:'Blood and Blade';-inkscape-font-specification:'Blood and Blade';letter-spacing:0px;word-spacing:0px;fill:#008000;fill-opacity:1;stroke:none;stroke-width:0.26458332"
           d="m -195.07097,71.004583 h 0.0338 q 0.0772,0 0.36656,0.265272 0.23151,0.115756 0.43408,0.115756 l 0.0482,-0.01447 0.0193,0.01447 h 0.0145 l 0.12058,-0.05306 0.0627,0.07235 -0.26527,0.163987 q -0.0531,0.04341 -0.16881,0.135047 -0.17363,0.120579 -0.42926,0.284565 -0.11576,0.09164 -0.35209,0.08199 -0.22669,-0.09164 -0.29903,-0.18328 -0.2701,-0.135047 -0.3328,-0.135047 l -0.15916,-0.01447 -0.0772,0.0048 -0.082,-0.0048 -0.0482,-0.01929 v -0.03376 q 0.0193,-0.05306 0.19293,-0.159164 0.17363,-0.106108 0.76688,-0.405143 0.0386,-0.0627 0.15434,-0.115755 z m 1.1479,6.453352 q -0.2508,0.217041 -0.33762,0.390674 l -0.13505,0.01447 q -0.37138,-0.101286 -0.71382,-0.381028 -0.20739,-0.139871 -0.20257,-0.535368 0.0145,-2.175233 -0.0145,-2.729893 -0.0675,-0.467844 -0.34244,-0.525722 l -0.28939,-0.02412 -0.2508,0.03376 q 0,-0.163987 0.10128,-0.163987 l 1.01286,-0.598068 h 0.0193 q 0.0675,0 0.18328,0.135047 0.32315,0.313504 0.57878,0.313504 l 0.13505,-0.01929 q 0.29903,-0.01929 0.49678,-0.115755 h 0.0193 l 0.0338,0.03376 q -0.01,0.03859 -0.29903,0.135048 -0.37138,0.207395 -0.41961,0.496783 -0.0772,0.202571 -0.0965,0.689708 v 1.958192 q 0.0241,0.448551 0.35209,0.559483 0.42444,-0.226687 0.81029,-0.327973 l 0.14952,0.03376 -0.005,0.09164 q -0.41479,0.188102 -0.78617,0.535367 z" />
        <path
           inkscape:connector-curvature="0"
           id="path864"
           style="font-style:normal;font-variant:normal;font-weight:normal;font-stretch:normal;font-size:9.8777771px;line-height:1.25;font-family:'Blood and Blade';-inkscape-font-specification:'Blood and Blade';letter-spacing:0px;word-spacing:0px;fill:#008000;fill-opacity:1;stroke:none;stroke-width:0.26458332"
           d="m -191.45845,75.750546 q -0.0482,0.07235 -0.0482,0.520899 l 0.005,0.472667 q 0.0145,0.265272 0.35691,0.463021 l 0.10611,0.0096 q 0.32797,-0.149517 0.58842,-0.516075 l 0.0675,-0.05306 h 0.0193 q -0.13505,0.699354 -0.9164,1.225076 l -0.13505,0.02894 q -0.23633,-0.255626 -0.5016,-0.303858 h -0.11576 q -0.26045,0 -0.82475,0.212218 -0.38586,0.197749 -0.7283,0.467844 l -0.0145,-0.01929 v -0.01447 q 0,-0.04341 0.51608,-0.651123 0.16398,-0.207395 0.37138,-0.540191 0.24598,-0.395497 0.29903,-0.964626 l -0.0193,-4.172011 q -0.0338,-0.491959 -0.22669,-0.660769 -0.14469,-0.115755 -0.36173,-0.115755 v -0.01447 q 0.0675,-0.15434 0.14952,-0.15434 l 0.10128,-0.01447 h 0.16881 q 0.23151,0 0.51608,0.265272 0.0289,-0.115755 0.0723,-0.24598 0.28939,-0.72347 0.67524,-0.887456 0.22187,-0.115755 0.33762,-0.09646 h 0.16881 q 0.46785,0.159163 0.46785,0.255626 v 0.06752 l -0.0482,0.04823 q -0.11575,-0.101285 -0.32315,-0.101285 h -0.0289 q -0.49196,0.05305 -0.68007,0.921218 l -0.053,0.511252 -0.01,1.53858 q -0.0386,0.207394 0.1254,0.197748 l 0.68007,-0.270095 q 0.20739,-0.110932 0.47266,-0.207395 h 0.10129 q 0.0916,0.05305 0.22669,0.24598 l 0.86816,1.104497 v 0.02412 l 0.0241,0.02412 q -0.0145,0.05305 -0.23634,0.135047 l -0.54501,0.284565 q -0.01,0.0096 -0.0241,0.01447 l -0.0193,0.0096 v 0.0096 q 0,0.03858 0.16881,0.08199 0.27974,0.207395 0.43408,0.525722 0.22669,0.762055 0.64148,1.832791 0.13505,0.08199 0.25562,0.0048 0.41962,-0.381028 0.43891,-0.704178 h 0.0482 v 0.04823 q -0.0434,0.448551 -0.47267,0.906749 -0.11093,0.135047 -0.35691,0.250803 -0.21704,0.09646 -0.28456,0.09646 -0.22669,0 -0.4582,-0.366558 -0.12058,-0.16881 -0.19293,-0.47749 -0.14951,-0.381028 -0.34726,-1.061089 l -0.0338,-0.08199 q -0.10129,-0.342442 -0.30868,-0.496782 l -0.49679,0.0048 q -0.082,0 -0.35209,0.130224 -0.22668,0.115756 -0.30868,0.250803 z m 1.40836,-1.229899 q -0.47267,-0.63183 -0.72829,-0.988742 l -0.10129,0.0096 q -0.11093,0.03858 -0.53537,0.250803 -0.12058,0.03858 -0.10128,0.318327 l 0.005,0.964627 q 0.0145,0.202571 0.1881,0.192925 z" />
        <path
           inkscape:connector-curvature="0"
           id="path866"
           style="font-style:normal;font-variant:normal;font-weight:normal;font-stretch:normal;font-size:9.8777771px;line-height:1.25;font-family:'Blood and Blade';-inkscape-font-specification:'Blood and Blade';letter-spacing:0px;word-spacing:0px;fill:#008000;fill-opacity:1;stroke:none;stroke-width:0.26458332"
           d="m -184.60477,76.850221 q 0.15434,-0.217041 0.15434,-0.371382 l -0.005,-2.329573 q 0.01,-0.207395 -0.24115,-0.327973 -0.0916,-0.09164 -0.74277,-0.41479 l -0.6463,0.110933 -0.0386,0.115755 v 3.004812 q 0.0289,0.120578 0.17846,0.274918 0.23151,0.236334 0.35691,0.26045 l 0.12058,0.04823 z m -1.00804,0.771701 -0.29421,0.236334 -0.12058,-0.0048 q -0.1881,-0.23151 -0.5209,-0.265272 -0.63183,0 -1.26848,0.32315 -0.23633,0.06752 -0.29421,0.115755 l -0.082,-0.03376 v -0.01447 q 0.23633,-0.125402 0.49196,-0.318327 0.627,-0.496783 0.67041,-1.012858 l -0.005,-2.189702 q 0.01,-0.424436 -0.0531,-0.588423 -0.13022,-0.356912 -0.54019,-0.356912 l -0.37138,0.01447 h -0.0145 v -0.01929 l 0.0338,-0.08199 q 0.48714,-0.02894 1.07074,-0.120578 l 2.04018,-0.390674 0.12541,-0.0096 q 0.27491,0.02411 0.6897,0.352088 l 0.0965,0.02412 q 0.3135,-0.04823 1.05626,-0.313504 0.34727,-0.144694 0.82958,-0.255626 l 0.0145,0.03376 q -0.3135,0.15434 -0.57395,0.33762 -0.86817,0.704177 -0.85852,1.191313 v 1.943723 q 0.01,0.419613 0.1254,0.487137 l 0.47267,0.241156 q 0.29421,0.125402 0.60289,0.506429 v 0.01929 h -0.0338 q -0.53537,-0.318327 -1.55787,-0.361735 l -0.40997,0.02894 q -0.50643,0.05788 -1.32154,0.482313 z" />
      </g>
    </g>
    <g
       id="g942"
       style="font-style:normal;font-variant:normal;font-weight:normal;font-stretch:normal;font-size:9.8777771px;line-height:1.25;font-family:mononoki;-inkscape-font-specification:mononoki;letter-spacing:0px;word-spacing:0px;fill:#ff0000;fill-opacity:1;stroke:none;stroke-width:0.26458332"
       aria-label="meksiko"
       transform="translate(7.614897,-17.566032)">
      <path
         inkscape:connector-curvature="0"
         id="path928"
         style="font-style:normal;font-variant:normal;font-weight:normal;font-stretch:normal;font-family:'Blood and Blade';-inkscape-font-specification:'Blood and Blade';fill:#ff0000;stroke-width:0.26458332"
         d="m -246.32691,89.467755 -0.0627,0.183279 v 2.421213 q -0.005,0.376204 0.10128,0.429259 0.16881,0 0.34245,-0.327973 l 0.0338,-0.135048 h 0.0193 l 0.082,0.01929 v 0.04823 l -0.0482,0.149517 -0.0241,0.110932 q -0.0675,0.409967 -0.2074,0.554661 -0.0965,0.178455 -0.41961,0.332796 -0.15434,0.03376 -0.17846,0 -0.13987,-0.08199 -0.42926,-0.371382 -0.24115,-0.110932 -0.45337,-0.05305 l -0.0193,-0.01447 v -0.01929 q 0.30868,-0.429259 0.34244,-0.689708 v -2.614138 q 0,-0.0627 -0.0434,-0.09164 l -0.0724,-0.110932 v -0.01447 q -0.0627,-0.120579 -0.16881,-0.202572 l -0.0579,-0.03376 -1.19132,0.496783 -0.0241,0.144694 -0.0289,-0.0096 v 2.392274 q 0.01,0.236333 0.23633,0.356912 0.13987,0.101285 0.30386,0.101285 0.10611,0 0.23633,-0.299034 0,-0.08682 0.0531,-0.08682 0.0627,0 0.10128,0.188102 -0.005,0.236334 -0.51125,0.786171 l -0.24116,0.163986 q -0.13987,0 -0.22668,-0.130224 -0.11576,-0.120579 -0.36174,-0.154341 -0.66559,-0.01447 -1.53375,0.381028 -0.36656,0.217041 -0.47267,0.217041 l -0.0193,-0.01929 v -0.01929 q 0.0289,-0.0627 0.45337,-0.347266 0.2508,-0.188102 0.56431,-0.506429 0.29903,-0.260449 0.39549,-0.55466 v -2.657547 q -0.01,-0.163986 -0.14469,-0.289388 -0.0772,-0.09164 -0.23151,-0.13987 -0.24116,-0.03858 -0.5209,0.04823 l -0.0482,-0.06752 q 0.0145,-0.07235 0.13505,-0.115755 0.39549,-0.236334 0.94533,-0.434082 0.10129,-0.03858 0.30386,-0.101286 h 0.0193 q 0.29904,0.07717 0.49678,0.347266 l 0.0868,0.332796 0.0868,0.01929 1.6061,-0.733116 h 0.0145 q 0.32315,0.02894 0.57395,0.337619 0.0916,0.144694 0.13023,0.274919 l 0.0868,0.115755 q 1.35048,-0.6463 1.52411,-0.72347 0.14952,-0.05788 0.22669,0.03376 0.16399,0.101286 0.28457,0.202572 0.12057,0.09646 0.25562,0.09646 0.71383,-0.366558 0.96463,-0.366558 l 0.20257,-0.01447 0.0338,0.06752 q -0.13987,0.0096 -0.26527,0.09164 -0.33762,0.192926 -0.66559,0.578776 -0.2074,0.202572 -0.2074,0.689708 l 0.005,2.614139 q 0.0723,0.212218 0.16398,0.226687 0.47267,-0.376204 0.89711,-0.376204 l 0.0145,0.01929 v 0.03376 q -0.082,0 -0.36655,0.270095 -0.34727,0.270096 -0.53537,0.56913 -0.13505,0.183279 -0.22187,0.188102 -0.14951,0.05788 -0.42925,-0.09164 -0.13987,-0.08199 -0.20258,-0.159164 -0.24115,-0.178455 -0.21704,-0.622184 v -2.831179 q -0.0482,-0.385851 -0.36655,-0.573953 z" />
      <path
         inkscape:connector-curvature="0"
         id="path930"
         style="font-style:normal;font-variant:normal;font-weight:normal;font-stretch:normal;font-family:'Blood and Blade';-inkscape-font-specification:'Blood and Blade';fill:#ff0000;stroke-width:0.26458332"
         d="m -239.81086,90.6446 0.0482,-0.04823 q -0.0386,-0.01447 -0.21222,-0.197748 l -1.17202,-1.249192 -0.082,0.03858 q -0.0531,0 -0.0434,0.07717 v 1.905138 l 0.01,0.120578 z m -1.43729,1.461409 q 0.25562,0.255626 0.98874,0.482313 0.47267,-0.15434 0.80064,-0.342442 0.16881,-0.07717 0.62218,-0.376205 0.12058,-0.08682 0.16881,-0.08199 l 0.0145,0.01447 v 0.01929 q 0,0.15434 -0.48231,0.56913 -0.24598,0.217041 -0.48714,0.299034 -0.13504,0.09646 -0.31832,0.183279 l -0.77171,0.352089 -0.082,0.04823 q -0.14469,0.0096 -0.19775,-0.115755 -0.0386,-0.125401 -0.25562,-0.149517 l -0.14952,-0.01447 q -0.40997,0 -0.85852,0.212217 l -0.45337,0.202572 -0.34244,0.197748 q -0.31833,0.207395 -0.40515,0.207395 v -0.03376 q 0.37621,-0.299034 0.5836,-0.458197 0.20257,-0.159164 0.51608,-0.559484 0.1881,-0.236333 0.22186,-0.670415 v -0.655947 l -0.005,-0.13987 -0.01,-1.099675 q -0.0145,-0.578776 -0.16881,-0.839225 -0.22186,-0.289388 -0.5016,-0.318327 h -0.31833 v -0.06752 h 0.0675 l 0.43408,-0.130224 0.90193,-0.236334 0.8344,-0.250803 0.0675,-0.0096 h 0.0482 l 0.0723,0.02412 q 0.0868,0.04823 0.23634,0.183279 0.18328,0.217041 0.31833,0.318327 l 1.40353,1.52411 0.0772,0.120578 q 0.005,0.130225 -0.31351,0.173633 l -0.91639,0.429259 -1.28778,0.578776 -0.0531,0.05305 z" />
      <path
         inkscape:connector-curvature="0"
         id="path932"
         style="font-style:normal;font-variant:normal;font-weight:normal;font-stretch:normal;font-family:'Blood and Blade';-inkscape-font-specification:'Blood and Blade';fill:#ff0000;stroke-width:0.26458332"
         d="m -236.83981,91.175144 q -0.0482,0.07235 -0.0482,0.520899 l 0.005,0.472667 q 0.0145,0.265272 0.35691,0.463021 l 0.10611,0.0096 q 0.32798,-0.149517 0.58843,-0.516075 l 0.0675,-0.05306 h 0.0193 q -0.13505,0.699354 -0.91639,1.225076 l -0.13505,0.02894 q -0.23634,-0.255626 -0.50161,-0.303858 h -0.11575 q -0.26045,0 -0.82476,0.212218 -0.38585,0.197749 -0.72829,0.467844 l -0.0145,-0.01929 v -0.01447 q 0,-0.04341 0.51607,-0.651123 0.16399,-0.207395 0.37139,-0.540191 0.24598,-0.395497 0.29903,-0.964626 l -0.0193,-4.172011 q -0.0338,-0.491959 -0.22669,-0.660769 -0.14469,-0.115755 -0.36173,-0.115755 v -0.01447 q 0.0675,-0.15434 0.14951,-0.15434 l 0.10129,-0.01447 h 0.16881 q 0.23151,0 0.51607,0.265272 0.0289,-0.115755 0.0724,-0.24598 0.28939,-0.72347 0.67524,-0.887456 0.22186,-0.115755 0.33762,-0.09646 h 0.16881 q 0.46784,0.159163 0.46784,0.255626 v 0.06752 l -0.0482,0.04823 q -0.11576,-0.101285 -0.32315,-0.101285 h -0.0289 q -0.49196,0.05305 -0.68006,0.921218 l -0.053,0.511252 -0.01,1.53858 q -0.0386,0.207394 0.1254,0.197748 l 0.68006,-0.270095 q 0.2074,-0.110932 0.47267,-0.207395 h 0.10129 q 0.0916,0.05305 0.22668,0.24598 l 0.86817,1.104497 v 0.02412 l 0.0241,0.02412 q -0.0145,0.05305 -0.23633,0.135047 l -0.54502,0.284565 q -0.01,0.0096 -0.0241,0.01447 l -0.0193,0.0096 v 0.0096 q 0,0.03858 0.16881,0.08199 0.27974,0.207395 0.43408,0.525722 0.22669,0.762055 0.64147,1.832791 0.13505,0.08199 0.25563,0.0048 0.41961,-0.381028 0.43891,-0.704178 h 0.0482 v 0.04823 q -0.0434,0.448551 -0.47267,0.906749 -0.11093,0.135047 -0.35691,0.250803 -0.21704,0.09646 -0.28457,0.09646 -0.22668,0 -0.45819,-0.366558 -0.12058,-0.16881 -0.19293,-0.47749 -0.14952,-0.381028 -0.34727,-1.061089 l -0.0338,-0.08199 q -0.10128,-0.342442 -0.30868,-0.496782 l -0.49678,0.0048 q -0.082,0 -0.35209,0.130224 -0.22669,0.115756 -0.30868,0.250803 z m 1.40836,-1.229899 q -0.47267,-0.63183 -0.7283,-0.988742 l -0.10128,0.0096 q -0.11094,0.03858 -0.53537,0.250803 -0.12058,0.03858 -0.10129,0.318327 l 0.005,0.964627 q 0.0145,0.202571 0.1881,0.192925 z" />
      <path
         inkscape:connector-curvature="0"
         id="path934"
         style="font-style:normal;font-variant:normal;font-weight:normal;font-stretch:normal;font-family:'Blood and Blade';-inkscape-font-specification:'Blood and Blade';fill:#ff0000;stroke-width:0.26458332"
         d="m -229.94755,89.216952 q -0.32315,0.110932 -0.59807,0.120578 -0.53537,-0.02894 -0.90675,-0.221864 h -0.0338 l 0.005,1.176845 0.0241,0.163986 0.42443,0.0048 z m -2.26687,3.21703 q 0.4389,-0.241157 1.18166,-0.279742 0.29904,0.01447 0.62219,0.09164 0.17845,0.0627 0.26527,0.120578 0.10611,-0.916395 0.0675,-1.44694 l -0.0627,-0.06752 -0.68971,-0.0048 z m 0.3135,0.496783 q -0.5209,0.101286 -0.84887,0.30868 -0.38103,0.178456 -0.69453,0.419613 l -0.2701,0.183279 -0.0482,-0.0048 q 0,-0.101286 0.22186,-0.347266 0.13023,-0.241156 0.45338,-0.569129 l 1.8135,-2.098063 -0.55466,0.01929 q -0.54019,0.07235 -0.82476,0.197749 v -0.01929 q 0.28457,-0.694531 0.24116,-1.456586 -0.0434,-0.573953 -0.36656,-0.573953 h -0.10129 l -0.5209,0.0627 v -0.03376 q 0,-0.05306 0.50643,-0.149517 0.41962,-0.110933 0.94051,-0.26045 0.44373,-0.144694 0.81029,-0.284565 h 0.0482 l 0.25081,0.139871 0.28938,0.07717 q 0.49196,0.07235 0.70418,0.01447 l 0.33762,-0.03376 q 0.2508,-0.0627 0.48714,-0.183279 0.17845,-0.04823 0.35209,-0.217041 l 0.13504,-0.04823 0.0338,0.135047 -0.6897,0.718647 -1.30707,1.52411 0.30386,-0.0048 q 0.5016,0.06752 1.00803,0.192925 0.21222,0.03376 0.54984,0.202572 v 0.01929 q -0.17846,0.120578 -0.22669,0.260449 -0.0868,0.144694 -0.13022,0.545014 -0.0289,0.704177 0.33279,0.959803 v 0.01447 q 0,0.04823 -0.0675,0.04823 l -0.10129,-0.03376 v 0.01929 l -0.0145,-0.01929 h -0.0675 q -0.56913,0 -1.21543,0.347266 l -0.45338,0.284565 h -0.0338 q -0.0338,0 -0.0723,-0.110932 -0.31351,-0.26045 -0.83441,-0.274919 -0.24115,0 -0.3762,0.02894 z" />
      <path
         inkscape:connector-curvature="0"
         id="path936"
         style="font-style:normal;font-variant:normal;font-weight:normal;font-stretch:normal;font-family:'Blood and Blade';-inkscape-font-specification:'Blood and Blade';fill:#ff0000;stroke-width:0.26458332"
         d="m -227.41058,86.429181 h 0.0338 q 0.0772,0 0.36656,0.265272 0.23151,0.115756 0.43408,0.115756 l 0.0482,-0.01447 0.0193,0.01447 h 0.0145 l 0.12058,-0.05306 0.0627,0.07235 -0.26527,0.163987 q -0.0531,0.04341 -0.16881,0.135047 -0.17363,0.120579 -0.42926,0.284565 -0.11576,0.09164 -0.35209,0.08199 -0.22669,-0.09164 -0.29903,-0.18328 -0.2701,-0.135047 -0.3328,-0.135047 l -0.15916,-0.01447 -0.0772,0.0048 -0.082,-0.0048 -0.0482,-0.01929 v -0.03376 q 0.0193,-0.05306 0.19293,-0.159164 0.17363,-0.106108 0.76688,-0.405143 0.0386,-0.0627 0.15434,-0.115755 z m 1.1479,6.453352 q -0.2508,0.217041 -0.33762,0.390674 l -0.13505,0.01447 q -0.37138,-0.101286 -0.71382,-0.381028 -0.20739,-0.139871 -0.20257,-0.535368 0.0145,-2.175233 -0.0145,-2.729893 -0.0675,-0.467844 -0.34244,-0.525722 l -0.28939,-0.02412 -0.2508,0.03376 q 0,-0.163987 0.10128,-0.163987 l 1.01286,-0.598068 h 0.0193 q 0.0675,0 0.18328,0.135047 0.32315,0.313504 0.57878,0.313504 l 0.13505,-0.01929 q 0.29903,-0.01929 0.49678,-0.115755 h 0.0193 l 0.0338,0.03376 q -0.01,0.03859 -0.29903,0.135048 -0.37138,0.207395 -0.41961,0.496783 -0.0772,0.202571 -0.0965,0.689708 v 1.958192 q 0.0241,0.448551 0.35209,0.559483 0.42444,-0.226687 0.81029,-0.327973 l 0.14952,0.03376 -0.005,0.09164 q -0.41479,0.188102 -0.78617,0.535367 z" />
      <path
         inkscape:connector-curvature="0"
         id="path938"
         style="font-style:normal;font-variant:normal;font-weight:normal;font-stretch:normal;font-family:'Blood and Blade';-inkscape-font-specification:'Blood and Blade';fill:#ff0000;stroke-width:0.26458332"
         d="m -223.79806,91.175144 q -0.0482,0.07235 -0.0482,0.520899 l 0.005,0.472667 q 0.0145,0.265272 0.35691,0.463021 l 0.10611,0.0096 q 0.32797,-0.149517 0.58842,-0.516075 l 0.0675,-0.05306 h 0.0193 q -0.13505,0.699354 -0.9164,1.225076 l -0.13505,0.02894 q -0.23633,-0.255626 -0.5016,-0.303858 h -0.11576 q -0.26045,0 -0.82475,0.212218 -0.38586,0.197749 -0.7283,0.467844 l -0.0145,-0.01929 v -0.01447 q 0,-0.04341 0.51608,-0.651123 0.16398,-0.207395 0.37138,-0.540191 0.24598,-0.395497 0.29903,-0.964626 l -0.0193,-4.172011 q -0.0338,-0.491959 -0.22669,-0.660769 -0.14469,-0.115755 -0.36173,-0.115755 v -0.01447 q 0.0675,-0.15434 0.14952,-0.15434 l 0.10128,-0.01447 h 0.16881 q 0.23151,0 0.51608,0.265272 0.0289,-0.115755 0.0723,-0.24598 0.28939,-0.72347 0.67524,-0.887456 0.22187,-0.115755 0.33762,-0.09646 h 0.16881 q 0.46785,0.159163 0.46785,0.255626 v 0.06752 l -0.0482,0.04823 q -0.11575,-0.101285 -0.32315,-0.101285 h -0.0289 q -0.49196,0.05305 -0.68007,0.921218 l -0.053,0.511252 -0.01,1.53858 q -0.0386,0.207394 0.1254,0.197748 l 0.68007,-0.270095 q 0.20739,-0.110932 0.47266,-0.207395 h 0.10129 q 0.0916,0.05305 0.22669,0.24598 l 0.86816,1.104497 v 0.02412 l 0.0241,0.02412 q -0.0145,0.05305 -0.23634,0.135047 l -0.54501,0.284565 q -0.01,0.0096 -0.0241,0.01447 l -0.0193,0.0096 v 0.0096 q 0,0.03858 0.16881,0.08199 0.27974,0.207395 0.43408,0.525722 0.22669,0.762055 0.64148,1.832791 0.13505,0.08199 0.25562,0.0048 0.41962,-0.381028 0.43891,-0.704178 h 0.0482 v 0.04823 q -0.0434,0.448551 -0.47267,0.906749 -0.11093,0.135047 -0.35691,0.250803 -0.21704,0.09646 -0.28456,0.09646 -0.22669,0 -0.4582,-0.366558 -0.12058,-0.16881 -0.19293,-0.47749 -0.14951,-0.381028 -0.34726,-1.061089 l -0.0338,-0.08199 q -0.10129,-0.342442 -0.30868,-0.496782 l -0.49679,0.0048 q -0.082,0 -0.35209,0.130224 -0.22668,0.115756 -0.30868,0.250803 z m 1.40836,-1.229899 q -0.47267,-0.63183 -0.72829,-0.988742 l -0.10129,0.0096 q -0.11093,0.03858 -0.53537,0.250803 -0.12058,0.03858 -0.10128,0.318327 l 0.005,0.964627 q 0.0145,0.202571 0.1881,0.192925 z" />
      <path
         inkscape:connector-curvature="0"
         id="path940"
         style="font-style:normal;font-variant:normal;font-weight:normal;font-stretch:normal;font-family:'Blood and Blade';-inkscape-font-specification:'Blood and Blade';fill:#ff0000;stroke-width:0.26458332"
         d="m -216.94438,92.274819 q 0.15434,-0.217041 0.15434,-0.371382 l -0.005,-2.329573 q 0.01,-0.207395 -0.24115,-0.327973 -0.0916,-0.09164 -0.74277,-0.41479 l -0.6463,0.110933 -0.0386,0.115755 v 3.004812 q 0.0289,0.120578 0.17846,0.274918 0.23151,0.236334 0.35691,0.26045 l 0.12058,0.04823 z m -1.00804,0.771701 -0.29421,0.236334 -0.12058,-0.0048 q -0.1881,-0.23151 -0.5209,-0.265272 -0.63183,0 -1.26848,0.32315 -0.23633,0.06752 -0.29421,0.115755 l -0.082,-0.03376 v -0.01447 q 0.23633,-0.125402 0.49196,-0.318327 0.627,-0.496783 0.67041,-1.012858 l -0.005,-2.189702 q 0.01,-0.424436 -0.0531,-0.588423 -0.13022,-0.356912 -0.54019,-0.356912 l -0.37138,0.01447 h -0.0145 v -0.01929 l 0.0338,-0.08199 q 0.48714,-0.02894 1.07074,-0.120578 l 2.04018,-0.390674 0.12541,-0.0096 q 0.27491,0.02411 0.6897,0.352088 l 0.0965,0.02412 q 0.3135,-0.04823 1.05626,-0.313504 0.34727,-0.144694 0.82958,-0.255626 l 0.0145,0.03376 q -0.3135,0.15434 -0.57395,0.33762 -0.86817,0.704177 -0.85852,1.191313 v 1.943723 q 0.01,0.419613 0.1254,0.487137 l 0.47267,0.241156 q 0.29421,0.125402 0.60289,0.506429 v 0.01929 h -0.0338 q -0.53537,-0.318327 -1.55787,-0.361735 l -0.40997,0.02894 q -0.50643,0.05788 -1.32154,0.482313 z" />
    </g>
    <g
       id="g973"
       transform="matrix(1.0848166,0,0,1.0848166,-85.598411,-14.755031)"
       style="fill:#ff0000"
       inkscape:export-filename="/home/iason/m.png"
       inkscape:export-xdpi="266.69998"
       inkscape:export-ydpi="266.69998">
      <g
         id="g961"
         transform="matrix(2.0435749,0,0,2.0435749,246.57917,-76.837055)"
         style="fill:#ff0000">
        <path
           d="m -213.9873,74.043157 -0.0627,0.183279 v 2.421213 q -0.005,0.376204 0.10128,0.429259 0.16881,0 0.34245,-0.327973 l 0.0338,-0.135048 h 0.0193 l 0.082,0.01929 v 0.04823 l -0.0482,0.149517 -0.0241,0.110932 q -0.0675,0.409967 -0.2074,0.554661 -0.0965,0.178455 -0.41961,0.332796 -0.15434,0.03376 -0.17846,0 -0.13987,-0.08199 -0.42926,-0.371382 -0.24115,-0.110932 -0.45337,-0.05305 l -0.0193,-0.01447 v -0.01929 q 0.30868,-0.429259 0.34244,-0.689708 v -2.614138 q 0,-0.0627 -0.0434,-0.09164 l -0.0724,-0.110932 v -0.01447 q -0.0627,-0.120579 -0.16881,-0.202572 l -0.0579,-0.03376 -1.19132,0.496783 -0.0241,0.144694 -0.0289,-0.0096 v 2.392274 q 0.01,0.236333 0.23633,0.356912 0.13987,0.101285 0.30386,0.101285 0.10611,0 0.23633,-0.299034 0,-0.08682 0.0531,-0.08682 0.0627,0 0.10128,0.188102 -0.005,0.236334 -0.51125,0.786171 l -0.24116,0.163986 q -0.13987,0 -0.22668,-0.130224 -0.11576,-0.120579 -0.36174,-0.154341 -0.66559,-0.01447 -1.53375,0.381028 -0.36656,0.217041 -0.47267,0.217041 l -0.0193,-0.01929 v -0.01929 q 0.0289,-0.0627 0.45337,-0.347266 0.2508,-0.188102 0.56431,-0.506429 0.29903,-0.260449 0.39549,-0.55466 v -2.657547 q -0.01,-0.163986 -0.14469,-0.289388 -0.0772,-0.09164 -0.23151,-0.13987 -0.24116,-0.03858 -0.5209,0.04823 l -0.0482,-0.06752 q 0.0145,-0.07235 0.13505,-0.115755 0.39549,-0.236334 0.94533,-0.434082 0.10129,-0.03858 0.30386,-0.101286 h 0.0193 q 0.29904,0.07717 0.49678,0.347266 l 0.0868,0.332796 0.0868,0.01929 1.6061,-0.733116 h 0.0145 q 0.32315,0.02894 0.57395,0.337619 0.0916,0.144694 0.13023,0.274919 l 0.0868,0.115755 q 1.35048,-0.6463 1.52411,-0.72347 0.14952,-0.05788 0.22669,0.03376 0.16399,0.101286 0.28457,0.202572 0.12057,0.09646 0.25562,0.09646 0.71383,-0.366558 0.96463,-0.366558 l 0.20257,-0.01447 0.0338,0.06752 q -0.13987,0.0096 -0.26527,0.09164 -0.33762,0.192926 -0.66559,0.578776 -0.2074,0.202572 -0.2074,0.689708 l 0.005,2.614139 q 0.0723,0.212218 0.16398,0.226687 0.47267,-0.376204 0.89711,-0.376204 l 0.0145,0.01929 v 0.03376 q -0.082,0 -0.36655,0.270095 -0.34727,0.270096 -0.53537,0.56913 -0.13505,0.183279 -0.22187,0.188102 -0.14951,0.05788 -0.42925,-0.09164 -0.13987,-0.08199 -0.20258,-0.159164 -0.24115,-0.178455 -0.21704,-0.622184 v -2.831179 q -0.0482,-0.385851 -0.36655,-0.573953 z"
           style="font-style:normal;font-variant:normal;font-weight:normal;font-stretch:normal;font-size:9.8777771px;line-height:1.25;font-family:'Blood and Blade';-inkscape-font-specification:'Blood and Blade';letter-spacing:0px;word-spacing:0px;fill:#ff0000;fill-opacity:1;stroke:none;stroke-width:0.26458332"
           id="path955"
           inkscape:connector-curvature="0" />
        <path
           d="m -207.47125,75.220002 0.0482,-0.04823 q -0.0386,-0.01447 -0.21222,-0.197748 l -1.17202,-1.249192 -0.082,0.03858 q -0.0531,0 -0.0434,0.07717 v 1.905138 l 0.01,0.120578 z m -1.43729,1.461409 q 0.25562,0.255626 0.98874,0.482313 0.47267,-0.15434 0.80064,-0.342442 0.16881,-0.07717 0.62218,-0.376205 0.12058,-0.08682 0.16881,-0.08199 l 0.0145,0.01447 v 0.01929 q 0,0.15434 -0.48231,0.56913 -0.24598,0.217041 -0.48714,0.299034 -0.13504,0.09646 -0.31832,0.183279 l -0.77171,0.352089 -0.082,0.04823 q -0.14469,0.0096 -0.19775,-0.115755 -0.0386,-0.125401 -0.25562,-0.149517 l -0.14952,-0.01447 q -0.40997,0 -0.85852,0.212217 l -0.45337,0.202572 -0.34244,0.197748 q -0.31833,0.207395 -0.40515,0.207395 v -0.03376 q 0.37621,-0.299034 0.5836,-0.458197 0.20257,-0.159164 0.51608,-0.559484 0.1881,-0.236333 0.22186,-0.670415 v -0.655947 l -0.005,-0.13987 -0.01,-1.099675 q -0.0145,-0.578776 -0.16881,-0.839225 -0.22186,-0.289388 -0.5016,-0.318327 h -0.31833 v -0.06752 h 0.0675 l 0.43408,-0.130224 0.90193,-0.236334 0.8344,-0.250803 0.0675,-0.0096 h 0.0482 l 0.0723,0.02412 q 0.0868,0.04823 0.23634,0.183279 0.18328,0.217041 0.31833,0.318327 l 1.40353,1.52411 0.0772,0.120578 q 0.005,0.130225 -0.31351,0.173633 l -0.91639,0.429259 -1.28778,0.578776 -0.0531,0.05305 z"
           style="font-style:normal;font-variant:normal;font-weight:normal;font-stretch:normal;font-size:9.8777771px;line-height:1.25;font-family:'Blood and Blade';-inkscape-font-specification:'Blood and Blade';letter-spacing:0px;word-spacing:0px;fill:#ff0000;fill-opacity:1;stroke:none;stroke-width:0.26458332"
           id="path957"
           inkscape:connector-curvature="0" />
        <path
           d="m -204.5002,75.750546 q -0.0482,0.07235 -0.0482,0.520899 l 0.005,0.472667 q 0.0145,0.265272 0.35691,0.463021 l 0.10611,0.0096 q 0.32798,-0.149517 0.58843,-0.516075 l 0.0675,-0.05306 h 0.0193 q -0.13505,0.699354 -0.91639,1.225076 l -0.13505,0.02894 q -0.23634,-0.255626 -0.50161,-0.303858 h -0.11575 q -0.26045,0 -0.82476,0.212218 -0.38585,0.197749 -0.72829,0.467844 l -0.0145,-0.01929 v -0.01447 q 0,-0.04341 0.51607,-0.651123 0.16399,-0.207395 0.37139,-0.540191 0.24598,-0.395497 0.29903,-0.964626 l -0.0193,-4.172011 q -0.0338,-0.491959 -0.22669,-0.660769 -0.14469,-0.115755 -0.36173,-0.115755 v -0.01447 q 0.0675,-0.15434 0.14951,-0.15434 l 0.10129,-0.01447 h 0.16881 q 0.23151,0 0.51607,0.265272 0.0289,-0.115755 0.0724,-0.24598 0.28939,-0.72347 0.67524,-0.887456 0.22186,-0.115755 0.33762,-0.09646 h 0.16881 q 0.46784,0.159163 0.46784,0.255626 v 0.06752 l -0.0482,0.04823 q -0.11576,-0.101285 -0.32315,-0.101285 h -0.0289 q -0.49196,0.05305 -0.68006,0.921218 l -0.053,0.511252 -0.01,1.53858 q -0.0386,0.207394 0.1254,0.197748 l 0.68006,-0.270095 q 0.2074,-0.110932 0.47267,-0.207395 h 0.10129 q 0.0916,0.05305 0.22668,0.24598 l 0.86817,1.104497 v 0.02412 l 0.0241,0.02412 q -0.0145,0.05305 -0.23633,0.135047 l -0.54502,0.284565 q -0.01,0.0096 -0.0241,0.01447 l -0.0193,0.0096 v 0.0096 q 0,0.03858 0.16881,0.08199 0.27974,0.207395 0.43408,0.525722 0.22669,0.762055 0.64147,1.832791 0.13505,0.08199 0.25563,0.0048 0.41961,-0.381028 0.43891,-0.704178 h 0.0482 v 0.04823 q -0.0434,0.448551 -0.47267,0.906749 -0.11093,0.135047 -0.35691,0.250803 -0.21704,0.09646 -0.28457,0.09646 -0.22668,0 -0.45819,-0.366558 -0.12058,-0.16881 -0.19293,-0.47749 -0.14952,-0.381028 -0.34727,-1.061089 l -0.0338,-0.08199 q -0.10128,-0.342442 -0.30868,-0.496782 l -0.49678,0.0048 q -0.082,0 -0.35209,0.130224 -0.22669,0.115756 -0.30868,0.250803 z m 1.40836,-1.229899 q -0.47267,-0.63183 -0.7283,-0.988742 l -0.10128,0.0096 q -0.11094,0.03858 -0.53537,0.250803 -0.12058,0.03858 -0.10129,0.318327 l 0.005,0.964627 q 0.0145,0.202571 0.1881,0.192925 z"
           style="font-style:normal;font-variant:normal;font-weight:normal;font-stretch:normal;font-size:9.8777771px;line-height:1.25;font-family:'Blood and Blade';-inkscape-font-specification:'Blood and Blade';letter-spacing:0px;word-spacing:0px;fill:#ff0000;fill-opacity:1;stroke:none;stroke-width:0.26458332"
           id="path959"
           inkscape:connector-curvature="0" />
      </g>
      <g
         id="g971"
         transform="matrix(1.9041147,0,0,1.9041147,182.70997,-46.25323)"
         style="fill:#ff0000">
        <path
           d="m -197.60794,73.792354 q -0.32315,0.110932 -0.59807,0.120578 -0.53537,-0.02894 -0.90675,-0.221864 h -0.0338 l 0.005,1.176845 0.0241,0.163986 0.42443,0.0048 z m -2.26687,3.21703 q 0.4389,-0.241157 1.18166,-0.279742 0.29904,0.01447 0.62219,0.09164 0.17845,0.0627 0.26527,0.120578 0.10611,-0.916395 0.0675,-1.44694 l -0.0627,-0.06752 -0.68971,-0.0048 z m 0.3135,0.496783 q -0.5209,0.101286 -0.84887,0.30868 -0.38103,0.178456 -0.69453,0.419613 l -0.2701,0.183279 -0.0482,-0.0048 q 0,-0.101286 0.22186,-0.347266 0.13023,-0.241156 0.45338,-0.569129 l 1.8135,-2.098063 -0.55466,0.01929 q -0.54019,0.07235 -0.82476,0.197749 v -0.01929 q 0.28457,-0.694531 0.24116,-1.456586 -0.0434,-0.573953 -0.36656,-0.573953 h -0.10129 l -0.5209,0.0627 v -0.03376 q 0,-0.05306 0.50643,-0.149517 0.41962,-0.110933 0.94051,-0.26045 0.44373,-0.144694 0.81029,-0.284565 h 0.0482 l 0.25081,0.139871 0.28938,0.07717 q 0.49196,0.07235 0.70418,0.01447 l 0.33762,-0.03376 q 0.2508,-0.0627 0.48714,-0.183279 0.17845,-0.04823 0.35209,-0.217041 l 0.13504,-0.04823 0.0338,0.135047 -0.6897,0.718647 -1.30707,1.52411 0.30386,-0.0048 q 0.5016,0.06752 1.00803,0.192925 0.21222,0.03376 0.54984,0.202572 v 0.01929 q -0.17846,0.120578 -0.22669,0.260449 -0.0868,0.144694 -0.13022,0.545014 -0.0289,0.704177 0.33279,0.959803 v 0.01447 q 0,0.04823 -0.0675,0.04823 l -0.10129,-0.03376 v 0.01929 l -0.0145,-0.01929 h -0.0675 q -0.56913,0 -1.21543,0.347266 l -0.45338,0.284565 h -0.0338 q -0.0338,0 -0.0723,-0.110932 -0.31351,-0.26045 -0.83441,-0.274919 -0.24115,0 -0.3762,0.02894 z"
           style="font-style:normal;font-variant:normal;font-weight:normal;font-stretch:normal;font-size:9.8777771px;line-height:1.25;font-family:'Blood and Blade';-inkscape-font-specification:'Blood and Blade';letter-spacing:0px;word-spacing:0px;fill:#ff0000;fill-opacity:1;stroke:none;stroke-width:0.26458332"
           id="path963"
           inkscape:connector-curvature="0" />
        <path
           d="m -195.07097,71.004583 h 0.0338 q 0.0772,0 0.36656,0.265272 0.23151,0.115756 0.43408,0.115756 l 0.0482,-0.01447 0.0193,0.01447 h 0.0145 l 0.12058,-0.05306 0.0627,0.07235 -0.26527,0.163987 q -0.0531,0.04341 -0.16881,0.135047 -0.17363,0.120579 -0.42926,0.284565 -0.11576,0.09164 -0.35209,0.08199 -0.22669,-0.09164 -0.29903,-0.18328 -0.2701,-0.135047 -0.3328,-0.135047 l -0.15916,-0.01447 -0.0772,0.0048 -0.082,-0.0048 -0.0482,-0.01929 v -0.03376 q 0.0193,-0.05306 0.19293,-0.159164 0.17363,-0.106108 0.76688,-0.405143 0.0386,-0.0627 0.15434,-0.115755 z m 1.1479,6.453352 q -0.2508,0.217041 -0.33762,0.390674 l -0.13505,0.01447 q -0.37138,-0.101286 -0.71382,-0.381028 -0.20739,-0.139871 -0.20257,-0.535368 0.0145,-2.175233 -0.0145,-2.729893 -0.0675,-0.467844 -0.34244,-0.525722 l -0.28939,-0.02412 -0.2508,0.03376 q 0,-0.163987 0.10128,-0.163987 l 1.01286,-0.598068 h 0.0193 q 0.0675,0 0.18328,0.135047 0.32315,0.313504 0.57878,0.313504 l 0.13505,-0.01929 q 0.29903,-0.01929 0.49678,-0.115755 h 0.0193 l 0.0338,0.03376 q -0.01,0.03859 -0.29903,0.135048 -0.37138,0.207395 -0.41961,0.496783 -0.0772,0.202571 -0.0965,0.689708 v 1.958192 q 0.0241,0.448551 0.35209,0.559483 0.42444,-0.226687 0.81029,-0.327973 l 0.14952,0.03376 -0.005,0.09164 q -0.41479,0.188102 -0.78617,0.535367 z"
           style="font-style:normal;font-variant:normal;font-weight:normal;font-stretch:normal;font-size:9.8777771px;line-height:1.25;font-family:'Blood and Blade';-inkscape-font-specification:'Blood and Blade';letter-spacing:0px;word-spacing:0px;fill:#ff0000;fill-opacity:1;stroke:none;stroke-width:0.26458332"
           id="path965"
           inkscape:connector-curvature="0" />
        <path
           d="m -191.45845,75.750546 q -0.0482,0.07235 -0.0482,0.520899 l 0.005,0.472667 q 0.0145,0.265272 0.35691,0.463021 l 0.10611,0.0096 q 0.32797,-0.149517 0.58842,-0.516075 l 0.0675,-0.05306 h 0.0193 q -0.13505,0.699354 -0.9164,1.225076 l -0.13505,0.02894 q -0.23633,-0.255626 -0.5016,-0.303858 h -0.11576 q -0.26045,0 -0.82475,0.212218 -0.38586,0.197749 -0.7283,0.467844 l -0.0145,-0.01929 v -0.01447 q 0,-0.04341 0.51608,-0.651123 0.16398,-0.207395 0.37138,-0.540191 0.24598,-0.395497 0.29903,-0.964626 l -0.0193,-4.172011 q -0.0338,-0.491959 -0.22669,-0.660769 -0.14469,-0.115755 -0.36173,-0.115755 v -0.01447 q 0.0675,-0.15434 0.14952,-0.15434 l 0.10128,-0.01447 h 0.16881 q 0.23151,0 0.51608,0.265272 0.0289,-0.115755 0.0723,-0.24598 0.28939,-0.72347 0.67524,-0.887456 0.22187,-0.115755 0.33762,-0.09646 h 0.16881 q 0.46785,0.159163 0.46785,0.255626 v 0.06752 l -0.0482,0.04823 q -0.11575,-0.101285 -0.32315,-0.101285 h -0.0289 q -0.49196,0.05305 -0.68007,0.921218 l -0.053,0.511252 -0.01,1.53858 q -0.0386,0.207394 0.1254,0.197748 l 0.68007,-0.270095 q 0.20739,-0.110932 0.47266,-0.207395 h 0.10129 q 0.0916,0.05305 0.22669,0.24598 l 0.86816,1.104497 v 0.02412 l 0.0241,0.02412 q -0.0145,0.05305 -0.23634,0.135047 l -0.54501,0.284565 q -0.01,0.0096 -0.0241,0.01447 l -0.0193,0.0096 v 0.0096 q 0,0.03858 0.16881,0.08199 0.27974,0.207395 0.43408,0.525722 0.22669,0.762055 0.64148,1.832791 0.13505,0.08199 0.25562,0.0048 0.41962,-0.381028 0.43891,-0.704178 h 0.0482 v 0.04823 q -0.0434,0.448551 -0.47267,0.906749 -0.11093,0.135047 -0.35691,0.250803 -0.21704,0.09646 -0.28456,0.09646 -0.22669,0 -0.4582,-0.366558 -0.12058,-0.16881 -0.19293,-0.47749 -0.14951,-0.381028 -0.34726,-1.061089 l -0.0338,-0.08199 q -0.10129,-0.342442 -0.30868,-0.496782 l -0.49679,0.0048 q -0.082,0 -0.35209,0.130224 -0.22668,0.115756 -0.30868,0.250803 z m 1.40836,-1.229899 q -0.47267,-0.63183 -0.72829,-0.988742 l -0.10129,0.0096 q -0.11093,0.03858 -0.53537,0.250803 -0.12058,0.03858 -0.10128,0.318327 l 0.005,0.964627 q 0.0145,0.202571 0.1881,0.192925 z"
           style="font-style:normal;font-variant:normal;font-weight:normal;font-stretch:normal;font-size:9.8777771px;line-height:1.25;font-family:'Blood and Blade';-inkscape-font-specification:'Blood and Blade';letter-spacing:0px;word-spacing:0px;fill:#ff0000;fill-opacity:1;stroke:none;stroke-width:0.26458332"
           id="path967"
           inkscape:connector-curvature="0" />
        <path
           d="m -184.60477,76.850221 q 0.15434,-0.217041 0.15434,-0.371382 l -0.005,-2.329573 q 0.01,-0.207395 -0.24115,-0.327973 -0.0916,-0.09164 -0.74277,-0.41479 l -0.6463,0.110933 -0.0386,0.115755 v 3.004812 q 0.0289,0.120578 0.17846,0.274918 0.23151,0.236334 0.35691,0.26045 l 0.12058,0.04823 z m -1.00804,0.771701 -0.29421,0.236334 -0.12058,-0.0048 q -0.1881,-0.23151 -0.5209,-0.265272 -0.63183,0 -1.26848,0.32315 -0.23633,0.06752 -0.29421,0.115755 l -0.082,-0.03376 v -0.01447 q 0.23633,-0.125402 0.49196,-0.318327 0.627,-0.496783 0.67041,-1.012858 l -0.005,-2.189702 q 0.01,-0.424436 -0.0531,-0.588423 -0.13022,-0.356912 -0.54019,-0.356912 l -0.37138,0.01447 h -0.0145 v -0.01929 l 0.0338,-0.08199 q 0.48714,-0.02894 1.07074,-0.120578 l 2.04018,-0.390674 0.12541,-0.0096 q 0.27491,0.02411 0.6897,0.352088 l 0.0965,0.02412 q 0.3135,-0.04823 1.05626,-0.313504 0.34727,-0.144694 0.82958,-0.255626 l 0.0145,0.03376 q -0.3135,0.15434 -0.57395,0.33762 -0.86817,0.704177 -0.85852,1.191313 v 1.943723 q 0.01,0.419613 0.1254,0.487137 l 0.47267,0.241156 q 0.29421,0.125402 0.60289,0.506429 v 0.01929 h -0.0338 q -0.53537,-0.318327 -1.55787,-0.361735 l -0.40997,0.02894 q -0.50643,0.05788 -1.32154,0.482313 z"
           style="font-style:normal;font-variant:normal;font-weight:normal;font-stretch:normal;font-size:9.8777771px;line-height:1.25;font-family:'Blood and Blade';-inkscape-font-specification:'Blood and Blade';letter-spacing:0px;word-spacing:0px;fill:#ff0000;fill-opacity:1;stroke:none;stroke-width:0.26458332"
           id="path969"
           inkscape:connector-curvature="0" />
      </g>
    </g>
  </g>
</svg>
